{"glyphs":{"0":{"ha":678,"x_min":138,"x_max":711,"o":"m 138 111 l 138 793 q 170 870 138 838 q 248 903 203 903 l 603 903 q 679 870 647 903 q 711 793 711 838 l 711 111 q 679 34 711 66 q 602 1 647 1 l 248 1 q 170 34 201 1 q 138 111 138 66 m 599 115 l 599 787 l 252 787 l 252 115 l 599 115 z "},"1":{"ha":678,"x_min":136,"x_max":710,"o":"m 193 115 l 368 115 l 368 787 l 196 787 q 156 804 172 787 q 139 844 139 821 q 156 885 139 868 q 196 901 172 901 l 482 901 l 482 115 l 596 115 l 596 353 q 613 393 596 376 q 653 410 629 410 q 693 393 677 410 q 710 353 710 376 l 710 58 q 693 18 710 35 q 653 1 677 1 l 193 1 q 153 19 170 1 q 136 60 136 36 q 153 99 136 83 q 193 115 170 115 z "},"2":{"ha":678,"x_min":135,"x_max":714,"o":"m 657 1 l 139 1 l 139 395 q 173 476 139 442 q 253 510 206 510 l 599 510 l 599 787 l 192 787 q 151 804 168 787 q 135 844 135 821 q 151 885 135 868 q 192 901 168 901 l 599 901 q 680 868 646 901 q 714 787 714 834 l 714 510 q 680 428 714 462 q 599 395 646 395 l 253 395 l 253 115 l 657 115 q 697 99 680 115 q 714 58 714 82 q 697 18 714 35 q 657 1 680 1 z "},"3":{"ha":678,"x_min":136,"x_max":715,"o":"m 714 787 l 714 574 q 668 453 714 499 q 715 338 715 400 l 715 115 q 682 35 715 68 q 600 1 648 1 l 197 1 q 157 18 174 1 q 140 58 140 35 q 157 99 140 82 q 197 115 174 115 l 599 115 l 599 338 q 582 379 599 361 q 542 396 566 396 l 313 396 q 272 412 289 396 q 256 453 256 429 q 272 493 256 477 q 313 510 289 510 l 543 510 q 583 527 566 510 q 600 567 600 543 l 600 787 l 193 787 q 153 804 170 787 q 136 844 136 821 q 153 885 136 868 q 193 901 170 901 l 600 901 q 681 868 648 901 q 714 787 714 834 z "},"4":{"ha":678,"x_min":170,"x_max":684,"o":"m 513 58 l 513 296 l 170 296 l 170 844 q 187 885 170 868 q 228 903 204 903 q 268 885 251 903 q 285 844 285 868 l 285 411 l 513 411 l 513 745 q 529 786 513 768 q 570 803 546 803 q 610 786 593 803 q 627 745 627 768 l 627 411 q 667 394 650 411 q 684 354 684 378 q 667 314 684 330 q 627 297 650 297 l 627 58 q 610 18 627 35 q 570 1 593 1 q 529 18 546 1 q 513 58 513 35 z "},"5":{"ha":678,"x_min":153,"x_max":726,"o":"m 349 115 l 612 115 l 612 395 l 268 395 l 268 901 l 669 901 q 709 884 692 901 q 726 844 726 867 q 710 804 726 821 q 669 787 693 787 l 383 787 l 383 509 l 612 509 q 692 475 659 509 q 726 395 726 441 l 726 115 q 693 35 726 68 q 612 1 659 1 l 349 1 q 273 18 313 1 l 187 54 q 153 109 153 68 q 168 149 153 132 q 206 165 184 165 q 245 155 223 165 l 321 123 q 349 115 334 115 z "},"6":{"ha":678,"x_min":140,"x_max":714,"o":"m 199 901 l 256 901 q 296 884 279 901 q 313 844 313 867 q 296 804 313 821 q 256 787 279 787 l 256 411 l 657 411 q 697 394 680 411 q 714 353 714 376 l 714 58 q 697 18 714 35 q 656 1 680 1 l 199 1 q 158 18 175 1 q 140 58 140 35 l 140 844 q 157 885 140 868 q 199 901 174 901 m 254 296 l 254 115 l 599 115 l 599 296 l 254 296 z "},"7":{"ha":678,"x_min":138,"x_max":711,"o":"m 138 794 l 138 843 q 154 883 138 867 q 195 900 171 900 l 711 900 l 711 550 q 690 504 711 522 l 481 325 l 481 60 q 464 19 481 36 q 424 1 448 1 q 383 18 400 1 q 366 58 366 35 l 366 346 q 386 396 366 378 l 596 574 l 596 786 l 252 786 q 195 737 239 737 q 154 754 171 737 q 138 794 138 770 z "},"8":{"ha":678,"x_min":136,"x_max":711,"o":"m 136 117 l 136 395 q 170 475 136 441 q 252 509 204 509 l 252 844 q 268 885 252 868 q 309 901 284 901 l 541 901 q 581 885 564 901 q 597 844 597 868 l 597 509 q 677 476 644 509 q 711 395 711 443 l 711 115 q 677 35 711 68 q 597 1 644 1 l 252 1 q 170 37 203 1 q 136 117 136 72 m 366 787 l 366 509 l 484 509 l 484 787 l 366 787 m 252 395 l 252 115 l 597 115 l 597 395 l 252 395 z "},"9":{"ha":678,"x_min":142,"x_max":714,"o":"m 657 3 l 600 3 q 560 19 577 3 q 543 60 543 36 q 560 100 543 83 q 600 117 576 117 l 600 493 l 199 493 q 159 510 176 493 q 142 550 142 527 l 142 846 q 159 886 142 869 q 199 903 176 903 l 657 903 q 697 886 680 903 q 714 846 714 869 l 714 60 q 697 19 714 36 q 657 3 681 3 m 602 608 l 602 787 l 256 787 l 256 608 l 602 608 z "}," ":{"ha":678,"x_min":0,"x_max":0,"o":""},"!":{"ha":678,"x_min":339,"x_max":513,"o":"m 511 843 l 484 401 q 465 361 481 377 q 427 345 449 345 q 386 361 401 345 q 368 401 370 378 l 340 844 q 356 884 339 867 q 397 901 374 901 l 454 901 q 495 883 478 901 q 511 843 513 865 m 397 165 l 452 165 q 493 149 475 165 q 510 109 510 132 l 510 58 q 493 18 510 35 q 453 1 477 1 l 396 1 q 356 18 372 1 q 339 58 339 35 l 339 107 q 357 148 340 131 q 397 165 374 165 z "},"\"":{"ha":678,"x_min":138,"x_max":713,"o":"m 138 903 l 713 903 l 713 850 l 656 543 q 597 494 646 494 q 541 543 550 494 l 492 787 l 359 787 l 310 542 q 253 493 298 493 q 195 542 203 493 l 138 850 l 138 903 z "},"#":{"ha":678,"x_min":140,"x_max":714,"o":"m 370 346 l 370 205 q 353 164 370 182 q 313 147 336 147 q 272 164 289 147 q 256 205 256 182 l 256 346 l 197 346 q 157 362 174 346 q 140 403 140 379 q 157 443 140 426 q 197 460 174 460 l 254 460 l 254 590 l 197 590 q 157 607 174 590 q 140 647 140 623 q 157 688 140 671 q 197 704 174 704 l 256 704 l 256 844 q 272 885 256 868 q 313 901 289 901 q 353 884 336 901 q 370 844 370 867 l 370 704 l 484 704 l 484 844 q 500 885 484 868 q 541 901 517 901 q 582 884 564 901 q 599 844 599 867 l 599 704 l 657 704 q 697 687 680 704 q 714 647 714 671 q 696 606 714 623 q 657 589 677 589 l 600 589 l 600 460 l 657 460 q 697 443 680 460 q 714 403 714 426 q 698 363 714 380 q 657 346 682 346 l 599 346 l 599 205 q 582 164 599 182 q 541 147 564 147 q 500 164 517 147 q 484 205 484 182 l 484 346 l 370 346 m 370 589 l 370 460 l 484 460 l 484 589 l 370 589 z "},"$":{"ha":678,"x_min":139,"x_max":717,"o":"m 715 452 l 715 254 q 698 214 715 231 q 657 197 681 197 l 484 197 l 484 58 q 467 18 484 35 q 427 1 450 1 q 385 18 402 1 q 368 58 368 35 l 368 199 l 196 199 q 156 215 173 199 q 139 256 139 232 q 156 296 139 279 q 196 313 172 313 l 599 313 l 599 395 l 197 395 q 157 411 174 395 q 140 452 140 427 l 140 648 q 157 689 140 672 q 197 705 174 705 l 368 705 l 368 844 q 384 884 368 867 q 427 901 400 901 q 467 885 450 901 q 484 844 484 868 l 484 705 l 659 705 q 700 688 682 705 q 717 648 717 671 q 700 607 717 625 q 659 590 682 590 l 256 590 l 256 509 l 657 509 q 698 492 681 509 q 715 452 715 475 z "},"%":{"ha":678,"x_min":138,"x_max":713,"o":"m 195 901 l 310 901 q 351 884 334 901 q 368 843 368 867 l 368 745 q 351 704 368 721 q 311 686 334 686 l 193 686 q 154 703 170 686 q 138 743 138 720 l 138 843 q 155 884 138 867 q 195 901 172 901 m 697 703 l 236 115 q 199 98 222 98 q 158 115 176 98 q 139 155 139 132 q 154 196 139 176 l 615 785 q 654 802 629 802 q 695 786 678 802 q 713 746 713 770 q 697 703 713 723 m 539 214 l 654 214 q 695 197 678 214 q 711 157 711 181 l 711 57 q 695 17 711 33 q 654 0 678 0 l 538 0 q 498 16 514 0 q 482 57 482 33 l 482 157 q 498 197 482 181 q 539 214 515 214 z "},"&":{"ha":678,"x_min":142,"x_max":718,"o":"m 619 17 l 551 87 l 464 12 q 432 1 456 1 l 314 1 q 192 52 243 1 q 142 175 142 103 l 142 254 q 164 301 142 282 l 268 390 l 163 505 q 142 558 142 528 l 142 629 q 193 751 142 700 q 314 802 243 802 l 429 802 q 551 751 500 802 q 602 629 602 700 l 602 553 q 572 496 602 521 l 436 379 l 561 248 l 619 296 q 663 313 639 313 q 702 296 686 313 q 718 256 718 279 q 700 216 718 232 l 640 164 l 700 97 q 716 56 716 79 q 700 16 716 33 q 659 0 683 0 q 619 17 635 0 m 488 575 l 488 631 q 471 672 488 654 q 431 689 454 689 l 314 689 q 274 672 290 689 q 257 631 257 654 l 257 574 l 358 465 l 488 575 m 257 228 l 257 172 q 274 132 257 149 q 314 115 291 115 l 407 115 l 472 172 l 349 306 l 257 228 z "},"'":{"ha":678,"x_min":314,"x_max":544,"o":"m 374 901 l 486 901 q 527 884 510 901 q 544 844 544 867 q 542 829 544 836 l 428 437 q 372 395 414 395 q 331 412 347 395 q 314 456 314 430 l 314 838 q 330 883 314 865 q 374 901 346 901 z "},"(":{"ha":678,"x_min":313,"x_max":599,"o":"m 427 559 l 427 340 q 453 262 427 296 l 589 89 q 599 56 599 77 q 581 14 599 29 q 540 -2 564 -2 q 501 16 515 -2 l 364 191 q 313 329 313 254 l 313 572 q 364 710 313 644 l 501 885 q 539 903 515 903 q 581 887 563 903 q 599 844 599 871 q 589 811 599 823 l 453 639 q 427 559 427 604 z "},")":{"ha":678,"x_min":262,"x_max":549,"o":"m 436 340 l 436 561 q 408 639 436 604 l 272 811 q 262 843 262 824 q 280 886 262 869 q 321 903 298 903 q 359 885 345 903 l 498 710 q 549 572 549 647 l 549 329 q 498 191 549 253 l 359 16 q 321 -2 345 -2 q 280 14 298 -2 q 262 58 262 31 q 272 90 262 78 l 408 262 q 436 340 436 296 z "},"*":{"ha":678,"x_min":157,"x_max":732,"o":"m 385 576 l 385 745 q 402 785 385 768 q 444 802 420 802 q 484 785 467 802 q 500 745 500 768 l 500 574 l 633 688 q 677 703 652 703 q 717 686 701 703 q 732 646 732 669 q 715 607 732 622 l 532 450 l 714 294 q 731 256 731 279 q 715 215 731 232 q 675 198 699 198 q 633 214 652 198 l 500 328 l 500 157 q 484 117 500 134 q 444 100 467 100 q 402 117 419 100 q 385 157 385 134 l 385 325 l 254 212 q 214 197 236 197 q 173 215 190 197 q 157 256 157 232 q 174 294 157 280 l 357 450 l 175 607 q 157 648 157 623 q 174 688 157 671 q 214 705 191 705 q 256 689 237 705 l 385 576 z "},"+":{"ha":678,"x_min":138,"x_max":717,"o":"m 370 510 l 370 685 q 387 724 370 708 q 428 741 404 741 q 467 724 451 741 q 484 685 484 708 l 484 510 l 659 510 q 700 493 682 510 q 717 453 717 477 q 700 413 717 429 q 659 396 682 396 l 485 396 l 485 221 q 468 180 485 197 q 427 163 450 163 q 386 180 403 163 q 370 221 370 197 l 370 396 l 195 396 q 155 413 172 396 q 138 453 138 429 q 155 493 138 476 q 195 510 172 510 l 370 510 z "},",":{"ha":678,"x_min":254,"x_max":599,"o":"m 599 354 l 599 58 q 582 18 599 35 q 542 1 566 1 q 502 18 518 1 q 485 58 485 35 l 485 297 l 311 297 q 271 314 288 297 q 254 355 254 332 q 271 395 254 378 q 311 412 288 412 l 542 412 q 582 395 566 412 q 599 354 599 378 z "},"-":{"ha":678,"x_min":140,"x_max":714,"o":"m 714 454 l 714 404 q 697 363 714 380 q 657 346 681 346 l 197 346 q 157 363 174 346 q 140 404 140 380 l 140 454 q 157 495 140 478 q 197 511 174 511 l 657 511 q 696 495 679 511 q 714 454 714 479 z "},".":{"ha":678,"x_min":310,"x_max":541,"o":"m 368 359 l 484 359 q 524 343 507 359 q 541 302 541 326 l 541 205 q 524 164 541 182 q 484 147 507 147 l 367 147 q 327 164 343 147 q 310 204 310 181 l 310 302 q 327 343 310 326 q 368 359 344 359 z "},"/":{"ha":678,"x_min":154,"x_max":726,"o":"m 712 803 l 250 17 q 215 -1 239 -1 q 173 15 193 -1 q 154 54 154 30 q 168 98 154 75 l 630 884 q 666 902 642 902 q 707 887 688 902 q 726 849 726 873 q 712 803 726 827 z "},":":{"ha":678,"x_min":313,"x_max":542,"o":"m 370 753 l 484 753 q 525 734 508 753 q 542 696 542 716 l 542 597 q 525 557 542 574 q 485 541 507 541 l 368 541 q 329 557 345 541 q 313 597 313 573 l 313 696 q 329 736 313 719 q 370 753 346 753 m 370 359 l 484 359 q 525 343 507 359 q 542 302 542 326 l 542 205 q 525 164 542 182 q 485 147 508 147 l 368 147 q 329 164 345 147 q 313 204 313 181 l 313 302 q 329 343 313 327 q 370 359 346 359 z "},";":{"ha":678,"x_min":250,"x_max":595,"o":"m 310 804 l 425 804 q 466 788 449 804 q 482 747 482 771 l 482 650 q 466 609 482 626 q 425 593 449 593 l 310 593 q 270 609 286 593 q 253 650 253 626 l 253 747 q 270 787 253 770 q 310 804 287 804 m 595 354 l 595 58 q 578 18 595 35 q 538 1 561 1 q 496 18 513 1 q 479 58 479 35 l 479 297 l 306 297 q 267 314 283 297 q 250 355 250 332 q 267 395 250 378 q 307 412 283 412 l 538 412 q 577 395 560 412 q 595 354 595 378 z "},"<":{"ha":678,"x_min":140,"x_max":717,"o":"m 140 429 l 140 473 q 175 528 140 507 l 624 793 q 661 805 642 805 q 700 788 682 805 q 717 747 717 771 q 692 700 717 715 l 272 452 l 692 204 q 717 156 717 188 q 700 115 717 132 q 661 98 682 98 q 624 110 644 98 l 175 375 q 140 429 140 394 z "},"=":{"ha":678,"x_min":138,"x_max":713,"o":"m 656 542 l 195 542 q 155 559 172 542 q 138 599 138 576 q 155 639 138 622 q 195 656 172 656 l 656 656 q 696 639 680 656 q 713 599 713 623 q 696 558 713 575 q 656 542 680 542 m 656 296 l 195 296 q 155 313 172 296 q 138 354 138 330 q 155 394 138 378 q 195 411 172 411 l 656 411 q 696 394 679 411 q 713 354 713 377 q 696 313 713 330 q 656 296 680 296 z "},">":{"ha":678,"x_min":155,"x_max":731,"o":"m 731 473 l 731 429 q 698 375 731 395 l 249 110 q 212 98 229 98 q 173 114 190 98 q 155 155 155 130 q 181 203 155 188 l 600 452 l 181 699 q 155 747 155 715 q 173 789 155 772 q 212 805 190 805 q 249 793 229 805 l 698 528 q 731 473 731 508 z "},"?":{"ha":678,"x_min":155,"x_max":729,"o":"m 713 608 l 385 325 l 385 254 q 368 214 385 231 q 328 197 351 197 q 287 214 304 197 q 271 254 271 231 l 271 349 q 288 395 271 379 l 614 675 l 614 717 l 557 768 l 254 509 q 212 491 233 491 q 173 507 191 491 q 155 549 155 524 q 170 590 155 577 l 520 888 q 558 901 536 901 q 593 889 579 901 l 709 787 q 729 745 729 772 l 729 647 q 713 608 729 621 m 326 117 q 367 99 350 117 q 383 58 383 82 q 367 18 383 35 q 326 1 350 1 q 286 18 302 1 q 269 58 269 35 q 286 99 269 82 q 326 117 302 117 z "},"@":{"ha":678,"x_min":140,"x_max":714,"o":"m 600 172 l 600 705 q 575 762 600 736 q 518 787 550 787 l 343 787 q 287 773 304 787 q 251 724 269 759 q 199 689 232 689 q 156 705 172 689 q 140 743 140 722 q 196 844 140 787 q 326 901 251 901 l 521 901 q 655 842 596 901 q 714 701 714 783 l 714 165 q 664 52 714 102 q 546 1 614 1 q 429 46 475 1 q 314 1 385 1 q 192 52 241 1 q 142 165 142 103 l 142 385 q 192 506 142 455 q 314 557 243 557 l 425 557 q 486 496 486 557 l 486 172 q 503 132 486 149 q 543 115 519 115 q 583 132 566 115 q 600 172 600 149 m 372 172 l 372 443 l 321 443 q 257 379 257 443 l 257 172 q 274 132 257 149 q 314 115 291 115 q 355 132 338 115 q 372 172 372 149 z "},"A":{"ha":678,"x_min":140,"x_max":714,"o":"m 144 79 l 374 859 q 431 901 388 901 q 484 865 473 901 l 711 74 q 714 57 714 65 q 698 17 714 33 q 661 0 682 0 q 604 41 616 0 l 557 196 l 298 196 l 248 31 q 231 10 245 20 q 198 0 216 0 q 157 17 173 0 q 140 58 140 34 q 144 79 140 68 m 430 637 l 332 311 l 524 311 l 430 637 z "},"B":{"ha":678,"x_min":138,"x_max":714,"o":"m 714 279 l 714 229 q 647 67 714 135 q 486 0 581 0 l 138 0 l 138 901 l 486 901 q 647 834 581 901 q 714 672 714 767 l 714 624 q 636 452 714 523 q 714 279 714 379 m 597 625 l 597 672 q 564 753 597 720 q 484 787 530 787 l 252 787 l 252 511 l 484 511 q 564 545 530 511 q 597 625 597 578 m 597 229 l 597 277 q 564 358 597 324 q 484 392 530 392 l 253 392 l 253 115 l 484 115 q 564 149 530 115 q 597 229 597 182 z "},"C":{"ha":678,"x_min":143,"x_max":720,"o":"m 453 114 l 659 114 q 700 97 682 114 q 717 57 717 81 q 700 17 717 33 q 659 0 682 0 l 446 0 q 361 26 405 0 q 301 83 318 52 l 170 338 q 143 450 143 393 q 168 561 143 514 l 301 812 q 360 874 320 848 q 437 901 400 901 l 663 901 q 703 884 686 901 q 720 844 720 867 q 703 803 720 821 q 663 786 686 786 l 446 786 q 401 754 418 786 l 275 518 q 260 452 260 490 q 277 382 260 412 l 397 150 q 453 114 414 114 m 719 746 q 703 706 719 722 q 662 689 686 689 q 622 706 638 689 q 606 746 606 722 l 606 843 q 622 883 606 867 q 662 900 638 900 q 703 883 686 900 q 719 843 719 867 l 719 746 m 716 58 q 700 18 716 35 q 659 1 684 1 q 619 18 635 1 q 603 58 603 35 l 603 155 q 619 196 603 179 q 659 212 635 212 q 700 196 684 212 q 716 155 716 179 l 716 58 z "},"D":{"ha":678,"x_min":138,"x_max":713,"o":"m 196 901 l 421 901 q 507 873 465 901 q 568 806 549 845 l 681 578 q 713 449 713 516 q 679 321 713 387 l 566 96 q 503 26 544 52 q 412 0 463 0 l 195 0 q 154 17 171 0 q 138 57 138 34 q 154 98 138 81 q 195 115 171 115 l 254 115 l 254 786 l 196 786 q 156 803 172 786 q 139 844 139 821 q 156 884 139 867 q 196 901 172 901 m 368 786 l 368 114 l 408 114 q 465 151 446 114 l 578 375 q 599 449 599 419 q 582 519 599 486 l 465 751 q 406 786 447 786 l 368 786 z "},"E":{"ha":678,"x_min":140,"x_max":715,"o":"m 657 786 l 254 786 l 254 509 l 428 509 q 468 492 451 509 q 485 452 485 475 q 468 410 485 427 q 428 393 452 393 l 254 393 l 254 114 l 659 114 q 699 97 682 114 q 715 57 715 81 q 698 17 715 33 q 657 0 681 0 l 140 0 l 140 901 l 657 901 q 698 884 681 901 q 715 843 715 867 q 698 803 715 820 q 657 786 681 786 m 715 746 q 699 706 715 722 q 658 689 682 689 q 618 706 634 689 q 602 746 602 722 l 602 843 q 618 883 602 867 q 658 900 634 900 q 699 883 682 900 q 715 843 715 867 l 715 746 m 715 58 q 699 18 715 35 q 658 1 682 1 q 618 18 634 1 q 602 58 602 35 l 602 155 q 618 196 602 179 q 658 212 634 212 q 699 196 682 212 q 715 155 715 179 l 715 58 z "},"F":{"ha":678,"x_min":140,"x_max":715,"o":"m 657 786 l 254 786 l 254 509 l 428 509 q 468 492 451 509 q 485 452 485 475 q 468 410 485 427 q 428 393 452 393 l 254 393 l 254 114 l 140 107 l 140 901 l 657 901 q 698 884 681 901 q 715 843 715 867 q 698 803 715 820 q 657 786 681 786 m 715 746 q 699 706 715 722 q 658 689 682 689 q 618 706 634 689 q 602 746 602 722 l 602 843 q 618 883 602 867 q 658 900 634 900 q 699 883 682 900 q 715 843 715 867 l 715 746 m 253 57 q 237 17 253 33 q 196 0 220 0 q 156 17 172 0 q 140 57 140 33 l 140 154 q 156 194 140 178 q 196 211 172 211 q 237 194 220 211 q 253 154 253 178 l 253 57 z "},"G":{"ha":678,"x_min":138,"x_max":719,"o":"m 471 901 l 660 901 q 700 885 684 901 q 717 844 717 868 q 699 803 717 819 q 660 786 681 786 l 479 786 q 433 761 453 786 l 273 555 q 253 488 253 531 l 253 172 q 270 131 253 148 q 310 114 286 114 l 542 114 q 582 131 565 114 q 599 171 599 148 l 599 369 l 481 369 q 440 386 456 369 q 424 426 424 402 q 440 466 424 450 q 481 483 456 483 l 713 483 l 713 171 q 663 50 713 100 q 542 0 612 0 l 310 0 q 188 50 239 0 q 138 171 138 100 l 138 486 q 183 629 138 571 l 351 843 q 402 884 370 867 q 471 901 435 901 m 719 746 q 703 706 719 722 q 662 689 686 689 q 622 706 638 689 q 606 746 606 722 l 606 843 q 622 883 606 867 q 662 900 638 900 q 703 883 686 900 q 719 843 719 867 l 719 746 z "},"H":{"ha":678,"x_min":138,"x_max":713,"o":"m 138 57 l 138 844 q 154 884 138 867 q 195 901 171 901 q 235 884 218 901 q 252 844 252 867 l 252 509 l 599 509 l 599 844 q 615 884 599 867 q 656 901 632 901 q 696 884 680 901 q 713 843 713 867 l 713 57 q 695 17 713 34 q 656 0 678 0 q 615 17 631 0 q 599 57 599 33 l 599 395 l 253 395 l 253 57 q 236 17 253 34 q 195 0 218 0 q 155 17 172 0 q 138 57 138 33 z "},"I":{"ha":678,"x_min":139,"x_max":714,"o":"m 196 901 l 657 901 q 697 884 680 901 q 714 844 714 867 q 697 803 714 821 q 657 786 680 786 l 485 786 l 485 114 l 657 114 q 697 97 681 114 q 714 57 714 81 q 697 17 714 33 q 657 0 680 0 l 196 0 q 156 17 172 0 q 139 57 139 33 q 156 97 139 81 q 196 114 172 114 l 371 114 l 371 786 l 196 786 q 156 803 172 786 q 139 843 139 820 q 156 884 139 867 q 196 901 172 901 z "},"J":{"ha":678,"x_min":140,"x_max":713,"o":"m 140 172 l 140 353 q 157 393 140 376 q 197 410 174 410 q 238 393 221 410 q 254 353 254 376 l 254 171 q 271 132 254 148 q 313 115 288 115 l 541 115 q 582 132 565 115 q 600 172 600 149 l 600 844 q 616 885 600 868 q 655 901 632 901 q 696 883 678 901 q 713 842 713 865 l 713 172 q 661 50 713 100 q 541 0 609 0 l 313 0 q 191 51 241 0 q 140 172 140 102 m 654 900 q 695 883 677 900 q 712 843 712 867 q 695 803 712 819 q 654 786 677 786 l 397 786 q 357 803 374 786 q 340 843 340 819 q 357 883 340 866 q 397 900 374 900 l 654 900 z "},"K":{"ha":678,"x_min":139,"x_max":717,"o":"m 139 57 l 139 843 q 156 884 139 867 q 196 901 172 901 q 236 885 220 901 q 253 844 253 868 l 253 575 l 618 886 q 661 902 637 902 q 701 884 684 902 q 717 844 717 867 q 699 804 717 820 l 285 453 l 699 96 q 715 59 715 81 q 699 18 715 37 q 658 0 682 0 q 616 16 635 0 l 253 329 l 253 57 q 236 17 253 33 q 196 0 220 0 q 156 17 173 0 q 139 57 139 33 z "},"L":{"ha":678,"x_min":140,"x_max":720,"o":"m 140 0 l 140 844 q 157 884 140 867 q 197 901 174 901 q 237 884 220 901 q 254 844 254 867 l 254 114 l 657 114 q 698 97 681 114 q 715 57 715 81 q 698 17 715 33 q 657 0 681 0 l 140 0 m 720 58 q 704 18 720 35 q 663 1 688 1 q 623 18 640 1 q 607 58 607 35 l 607 155 q 623 196 607 179 q 663 212 640 212 q 704 196 688 212 q 720 155 720 179 l 720 58 z "},"M":{"ha":678,"x_min":138,"x_max":714,"o":"m 252 687 l 252 57 q 235 17 252 33 q 195 0 218 0 q 154 17 171 0 q 138 57 138 34 l 138 901 l 285 901 l 424 583 l 570 901 l 714 901 l 714 57 q 697 17 714 33 q 656 0 680 0 q 616 17 633 0 q 599 57 599 34 l 599 684 q 465 450 482 467 q 425 433 448 433 q 385 450 401 433 q 252 687 368 467 z "},"N":{"ha":678,"x_min":140,"x_max":714,"o":"m 714 843 l 714 0 l 561 0 l 254 700 l 254 57 q 238 17 254 33 q 197 0 221 0 q 157 17 174 0 q 140 57 140 33 l 140 901 l 292 901 l 599 203 l 599 843 q 616 884 599 867 q 657 901 633 901 q 697 884 681 901 q 714 843 714 867 z "},"O":{"ha":678,"x_min":139,"x_max":714,"o":"m 562 818 l 688 562 q 714 449 714 510 q 688 336 714 389 l 562 83 q 427 0 522 0 q 345 24 381 0 q 290 83 309 47 l 164 336 q 139 449 139 386 q 164 562 139 512 l 290 818 q 427 901 333 901 q 562 818 522 901 m 389 761 l 271 521 q 254 450 254 485 q 271 379 254 413 l 392 136 q 427 114 401 114 q 460 136 448 114 l 582 379 q 599 450 599 415 q 582 521 599 488 l 463 761 q 427 787 451 787 q 389 761 402 787 z "},"P":{"ha":678,"x_min":140,"x_max":715,"o":"m 140 57 l 140 901 l 545 901 q 665 850 614 901 q 715 729 715 800 l 715 515 q 665 395 715 445 q 545 345 615 345 l 256 345 l 256 57 q 239 17 256 33 q 199 0 222 0 q 157 17 174 0 q 140 57 140 33 m 256 458 l 545 458 q 585 475 568 458 q 602 515 602 492 l 602 729 q 585 769 602 753 q 545 786 568 786 l 256 786 l 256 458 z "},"Q":{"ha":678,"x_min":139,"x_max":715,"o":"m 231 652 l 473 861 q 574 901 522 901 q 672 860 631 901 q 714 771 714 819 l 714 422 q 629 252 714 323 l 553 186 l 582 114 l 659 114 q 699 97 682 114 q 715 57 715 81 q 699 17 715 33 q 659 0 682 0 l 503 0 l 461 107 l 383 43 q 279 0 332 0 q 179 41 220 0 q 139 140 139 82 l 139 458 q 157 561 139 518 q 231 652 176 604 m 549 778 l 306 568 q 263 515 274 541 q 253 444 253 490 l 253 147 q 280 112 253 112 q 301 121 291 112 l 416 220 l 379 319 q 371 353 371 339 q 388 391 371 374 q 428 408 405 408 q 481 375 468 408 l 510 298 q 579 362 559 337 q 599 422 599 388 l 599 758 q 573 787 599 787 q 549 778 559 787 z "},"R":{"ha":678,"x_min":142,"x_max":716,"o":"m 142 57 l 142 901 l 545 901 q 665 850 614 901 q 715 729 715 800 l 715 664 q 665 542 715 593 q 545 492 615 492 l 472 492 l 705 92 q 716 56 716 74 q 699 17 716 33 q 659 0 681 0 q 607 31 625 0 l 339 492 l 257 492 l 257 57 q 240 17 257 33 q 199 0 222 0 q 158 17 175 0 q 142 57 142 33 m 256 606 l 545 606 q 585 622 568 606 q 602 663 602 639 l 602 729 q 585 769 602 753 q 545 786 568 786 l 256 786 l 256 606 z "},"S":{"ha":678,"x_min":136,"x_max":721,"o":"m 269 901 l 566 901 q 668 856 620 901 q 717 745 717 810 q 700 703 717 720 q 661 686 682 686 q 621 700 632 686 q 601 749 610 713 q 557 785 591 785 l 275 785 q 255 772 255 785 l 255 645 l 690 317 q 718 262 721 297 l 717 128 q 680 39 717 77 q 597 0 643 0 l 290 0 q 184 46 229 0 q 139 149 139 93 q 199 212 139 212 q 238 196 222 212 q 254 157 254 179 q 267 126 254 138 q 298 114 279 114 l 582 114 q 602 138 600 114 l 602 243 l 165 568 q 140 633 136 606 l 140 770 q 178 862 140 823 q 269 901 216 901 z "},"T":{"ha":678,"x_min":139,"x_max":714,"o":"m 139 746 l 139 900 l 714 900 l 714 745 q 697 704 714 721 q 657 688 680 688 q 616 705 633 688 q 599 745 599 722 l 599 786 l 484 786 l 484 57 q 467 17 484 33 q 427 0 450 0 q 385 17 402 0 q 368 57 368 33 l 368 786 l 253 786 l 253 746 q 236 706 253 722 q 196 689 220 689 q 156 706 172 689 q 139 746 139 722 z "},"U":{"ha":678,"x_min":139,"x_max":714,"o":"m 139 205 l 139 843 q 156 884 139 867 q 196 901 173 901 q 236 884 219 901 q 253 844 253 867 l 253 205 q 284 149 253 182 q 338 115 315 115 l 508 115 q 566 149 532 115 q 600 205 600 182 l 600 843 q 617 884 600 867 q 657 901 633 901 q 697 884 681 901 q 714 843 714 867 l 714 206 q 664 68 714 136 q 508 0 613 0 l 338 0 q 189 67 239 0 q 139 205 139 134 z "},"V":{"ha":678,"x_min":142,"x_max":717,"o":"m 717 843 l 717 633 l 485 43 q 429 0 467 0 q 372 43 389 0 l 142 633 l 142 843 q 158 884 142 867 q 199 901 175 901 q 239 884 222 901 q 256 843 256 867 l 256 657 l 429 215 l 603 656 l 603 843 q 620 884 603 867 q 660 901 636 901 q 700 884 684 901 q 717 843 717 867 z "},"W":{"ha":678,"x_min":138,"x_max":714,"o":"m 281 195 q 386 768 370 751 q 427 785 403 785 q 467 768 450 785 q 562 189 484 751 l 599 844 q 616 884 599 867 q 656 901 633 901 q 697 885 680 901 q 714 844 714 868 l 644 47 q 601 0 644 0 l 548 0 q 505 34 517 0 l 425 475 l 338 34 q 296 0 325 0 l 233 0 q 192 45 192 0 l 138 844 q 154 884 138 867 q 195 901 171 901 q 235 885 218 901 q 252 844 252 868 l 281 195 z "},"X":{"ha":678,"x_min":149,"x_max":727,"o":"m 437 338 l 256 28 q 208 1 240 1 q 166 18 183 1 q 149 57 149 36 q 159 90 149 73 l 371 450 l 163 808 q 151 847 151 829 q 168 885 151 869 q 207 902 184 902 q 256 875 240 902 l 439 566 l 620 873 q 668 901 637 901 q 709 885 692 901 q 727 846 727 869 q 718 815 727 830 l 505 452 l 717 86 q 725 57 725 73 q 708 16 725 33 q 668 0 692 0 q 618 28 635 0 l 437 338 z "},"Y":{"ha":678,"x_min":142,"x_max":715,"o":"m 486 432 l 486 57 q 469 17 486 33 q 429 0 452 0 q 388 17 405 0 q 371 57 371 33 l 371 432 l 142 722 l 142 843 q 158 884 142 867 q 199 901 175 901 q 240 884 222 901 q 257 843 257 867 l 257 765 l 428 545 l 602 764 l 602 843 q 618 884 602 867 q 659 901 635 901 q 698 885 681 901 q 715 843 715 869 l 715 724 l 486 432 z "},"Z":{"ha":678,"x_min":139,"x_max":714,"o":"m 195 901 l 714 901 l 714 828 l 296 114 l 657 114 q 697 97 681 114 q 714 57 714 81 q 697 17 714 34 q 657 0 680 0 l 139 0 l 139 75 l 557 786 l 195 786 q 155 803 172 786 q 139 844 139 821 q 155 884 139 867 q 195 901 172 901 m 141 843 q 157 883 141 867 q 198 900 174 900 q 238 883 222 900 q 254 843 254 867 l 254 746 q 238 706 254 722 q 198 689 222 689 q 157 706 174 689 q 141 746 141 722 l 141 843 m 600 155 q 616 196 600 179 q 657 212 633 212 q 697 196 681 212 q 713 155 713 179 l 713 58 q 697 18 713 35 q 657 1 681 1 q 616 18 633 1 q 600 58 600 35 l 600 155 z "},"[":{"ha":678,"x_min":140,"x_max":714,"o":"m 428 115 l 657 115 q 697 99 681 115 q 714 58 714 82 q 697 18 714 35 q 657 1 681 1 l 197 1 q 157 18 174 1 q 140 58 140 35 l 140 844 q 157 886 140 869 q 197 903 174 903 l 657 903 q 697 886 680 903 q 714 846 714 869 q 697 805 714 822 q 657 787 681 787 l 428 787 l 428 115 m 314 115 l 314 787 l 254 787 l 254 115 l 314 115 z "},"\\":{"ha":678,"x_min":155,"x_max":728,"o":"m 632 17 l 170 803 q 155 849 155 829 q 174 887 155 873 q 216 902 193 902 q 252 884 241 902 l 713 98 q 728 54 728 74 q 709 15 728 30 q 667 -1 690 -1 q 632 17 643 -1 z "},"]":{"ha":678,"x_min":139,"x_max":714,"o":"m 425 787 l 197 787 q 156 804 173 787 q 139 844 139 821 q 156 884 139 867 q 197 901 174 901 l 656 901 q 697 885 680 901 q 714 844 714 868 l 714 58 q 697 18 714 35 q 657 1 680 1 l 197 1 q 157 19 174 1 q 140 60 140 36 q 157 99 140 83 q 197 115 174 115 l 425 115 l 425 787 m 541 787 l 541 115 l 600 115 l 600 787 l 541 787 z "},"^":{"ha":678,"x_min":151,"x_max":726,"o":"m 162 241 l 387 672 q 439 705 405 705 q 490 672 473 705 l 715 241 q 726 203 726 221 q 710 166 726 182 q 670 149 693 149 q 622 174 639 149 l 439 447 l 256 174 q 208 149 239 149 q 168 165 184 149 q 151 203 151 182 q 162 241 151 221 z "},"_":{"ha":678,"x_min":-7,"x_max":846,"o":"m 846 -174 l -7 -174 l -7 -58 l 846 -58 l 846 -174 z "},"`":{"ha":678,"x_min":265,"x_max":585,"o":"m 553 800 q 585 749 585 784 q 569 708 585 726 q 529 690 553 690 q 504 696 516 690 l 297 791 q 265 843 265 808 q 281 883 265 865 q 321 901 296 901 q 346 896 334 901 l 553 800 z "},"a":{"ha":678,"x_min":140,"x_max":714,"o":"m 144 79 l 374 859 q 431 901 388 901 q 484 865 473 901 l 711 74 q 714 57 714 65 q 698 17 714 33 q 661 0 682 0 q 604 41 616 0 l 557 196 l 298 196 l 248 31 q 231 10 245 20 q 198 0 216 0 q 157 17 173 0 q 140 58 140 34 q 144 79 140 68 m 430 637 l 332 311 l 524 311 l 430 637 z "},"b":{"ha":678,"x_min":138,"x_max":714,"o":"m 714 279 l 714 229 q 647 67 714 135 q 486 0 581 0 l 138 0 l 138 901 l 486 901 q 647 834 581 901 q 714 672 714 767 l 714 624 q 636 452 714 523 q 714 279 714 379 m 597 625 l 597 672 q 564 753 597 720 q 484 787 530 787 l 252 787 l 252 511 l 484 511 q 564 545 530 511 q 597 625 597 578 m 597 229 l 597 277 q 564 358 597 324 q 484 392 530 392 l 253 392 l 253 115 l 484 115 q 564 149 530 115 q 597 229 597 182 z "},"c":{"ha":678,"x_min":143,"x_max":720,"o":"m 453 114 l 659 114 q 700 97 682 114 q 717 57 717 81 q 700 17 717 33 q 659 0 682 0 l 446 0 q 361 26 405 0 q 301 83 318 52 l 170 338 q 143 450 143 393 q 168 561 143 514 l 301 812 q 360 874 320 848 q 437 901 400 901 l 663 901 q 703 884 686 901 q 720 844 720 867 q 703 803 720 821 q 663 786 686 786 l 446 786 q 401 754 418 786 l 275 518 q 260 452 260 490 q 277 382 260 412 l 397 150 q 453 114 414 114 m 719 746 q 703 706 719 722 q 662 689 686 689 q 622 706 638 689 q 606 746 606 722 l 606 843 q 622 883 606 867 q 662 900 638 900 q 703 883 686 900 q 719 843 719 867 l 719 746 m 716 58 q 700 18 716 35 q 659 1 684 1 q 619 18 635 1 q 603 58 603 35 l 603 155 q 619 196 603 179 q 659 212 635 212 q 700 196 684 212 q 716 155 716 179 l 716 58 z "},"d":{"ha":678,"x_min":138,"x_max":713,"o":"m 196 901 l 421 901 q 507 873 465 901 q 568 806 549 845 l 681 578 q 713 449 713 516 q 679 321 713 387 l 566 96 q 503 26 544 52 q 412 0 463 0 l 195 0 q 154 17 171 0 q 138 57 138 34 q 154 98 138 81 q 195 115 171 115 l 254 115 l 254 786 l 196 786 q 156 803 172 786 q 139 844 139 821 q 156 884 139 867 q 196 901 172 901 m 368 786 l 368 114 l 408 114 q 465 151 446 114 l 578 375 q 599 449 599 419 q 582 519 599 486 l 465 751 q 406 786 447 786 l 368 786 z "},"e":{"ha":678,"x_min":140,"x_max":715,"o":"m 657 786 l 254 786 l 254 509 l 428 509 q 468 492 451 509 q 485 452 485 475 q 468 410 485 427 q 428 393 452 393 l 254 393 l 254 114 l 659 114 q 699 97 682 114 q 715 57 715 81 q 698 17 715 33 q 657 0 681 0 l 140 0 l 140 901 l 657 901 q 698 884 681 901 q 715 843 715 867 q 698 803 715 820 q 657 786 681 786 m 715 746 q 699 706 715 722 q 658 689 682 689 q 618 706 634 689 q 602 746 602 722 l 602 843 q 618 883 602 867 q 658 900 634 900 q 699 883 682 900 q 715 843 715 867 l 715 746 m 715 58 q 699 18 715 35 q 658 1 682 1 q 618 18 634 1 q 602 58 602 35 l 602 155 q 618 196 602 179 q 658 212 634 212 q 699 196 682 212 q 715 155 715 179 l 715 58 z "},"f":{"ha":678,"x_min":140,"x_max":715,"o":"m 657 786 l 254 786 l 254 509 l 428 509 q 468 492 451 509 q 485 452 485 475 q 468 410 485 427 q 428 393 452 393 l 254 393 l 254 114 l 140 107 l 140 901 l 657 901 q 698 884 681 901 q 715 843 715 867 q 698 803 715 820 q 657 786 681 786 m 715 746 q 699 706 715 722 q 658 689 682 689 q 618 706 634 689 q 602 746 602 722 l 602 843 q 618 883 602 867 q 658 900 634 900 q 699 883 682 900 q 715 843 715 867 l 715 746 m 253 57 q 237 17 253 33 q 196 0 220 0 q 156 17 172 0 q 140 57 140 33 l 140 154 q 156 194 140 178 q 196 211 172 211 q 237 194 220 211 q 253 154 253 178 l 253 57 z "},"g":{"ha":678,"x_min":138,"x_max":719,"o":"m 471 901 l 660 901 q 700 885 684 901 q 717 844 717 868 q 699 803 717 819 q 660 786 681 786 l 479 786 q 433 761 453 786 l 273 555 q 253 488 253 531 l 253 172 q 270 131 253 148 q 310 114 286 114 l 542 114 q 582 131 565 114 q 599 171 599 148 l 599 369 l 481 369 q 440 386 456 369 q 424 426 424 402 q 440 466 424 450 q 481 483 456 483 l 713 483 l 713 171 q 663 50 713 100 q 542 0 612 0 l 310 0 q 188 50 239 0 q 138 171 138 100 l 138 486 q 183 629 138 571 l 351 843 q 402 884 370 867 q 471 901 435 901 m 719 746 q 703 706 719 722 q 662 689 686 689 q 622 706 638 689 q 606 746 606 722 l 606 843 q 622 883 606 867 q 662 900 638 900 q 703 883 686 900 q 719 843 719 867 l 719 746 z "},"h":{"ha":678,"x_min":138,"x_max":713,"o":"m 138 57 l 138 844 q 154 884 138 867 q 195 901 171 901 q 235 884 218 901 q 252 844 252 867 l 252 509 l 599 509 l 599 844 q 615 884 599 867 q 656 901 632 901 q 696 884 680 901 q 713 843 713 867 l 713 57 q 695 17 713 34 q 656 0 678 0 q 615 17 631 0 q 599 57 599 33 l 599 395 l 253 395 l 253 57 q 236 17 253 34 q 195 0 218 0 q 155 17 172 0 q 138 57 138 33 z "},"i":{"ha":678,"x_min":139,"x_max":714,"o":"m 196 901 l 657 901 q 697 884 680 901 q 714 844 714 867 q 697 803 714 821 q 657 786 680 786 l 485 786 l 485 114 l 657 114 q 697 97 681 114 q 714 57 714 81 q 697 17 714 33 q 657 0 680 0 l 196 0 q 156 17 172 0 q 139 57 139 33 q 156 97 139 81 q 196 114 172 114 l 371 114 l 371 786 l 196 786 q 156 803 172 786 q 139 843 139 820 q 156 884 139 867 q 196 901 172 901 z "},"j":{"ha":678,"x_min":140,"x_max":713,"o":"m 140 172 l 140 353 q 157 393 140 376 q 197 410 174 410 q 238 393 221 410 q 254 353 254 376 l 254 171 q 271 132 254 148 q 313 115 288 115 l 541 115 q 582 132 565 115 q 600 172 600 149 l 600 844 q 616 885 600 868 q 655 901 632 901 q 696 883 678 901 q 713 842 713 865 l 713 172 q 661 50 713 100 q 541 0 609 0 l 313 0 q 191 51 241 0 q 140 172 140 102 m 654 900 q 695 883 677 900 q 712 843 712 867 q 695 803 712 819 q 654 786 677 786 l 397 786 q 357 803 374 786 q 340 843 340 819 q 357 883 340 866 q 397 900 374 900 l 654 900 z "},"k":{"ha":678,"x_min":139,"x_max":717,"o":"m 139 57 l 139 843 q 156 884 139 867 q 196 901 172 901 q 236 885 220 901 q 253 844 253 868 l 253 575 l 618 886 q 661 902 637 902 q 701 884 684 902 q 717 844 717 867 q 699 804 717 820 l 285 453 l 699 96 q 715 59 715 81 q 699 18 715 37 q 658 0 682 0 q 616 16 635 0 l 253 329 l 253 57 q 236 17 253 33 q 196 0 220 0 q 156 17 173 0 q 139 57 139 33 z "},"l":{"ha":678,"x_min":140,"x_max":720,"o":"m 140 0 l 140 844 q 157 884 140 867 q 197 901 174 901 q 237 884 220 901 q 254 844 254 867 l 254 114 l 657 114 q 698 97 681 114 q 715 57 715 81 q 698 17 715 33 q 657 0 681 0 l 140 0 m 720 58 q 704 18 720 35 q 663 1 688 1 q 623 18 640 1 q 607 58 607 35 l 607 155 q 623 196 607 179 q 663 212 640 212 q 704 196 688 212 q 720 155 720 179 l 720 58 z "},"m":{"ha":678,"x_min":138,"x_max":714,"o":"m 252 687 l 252 57 q 235 17 252 33 q 195 0 218 0 q 154 17 171 0 q 138 57 138 34 l 138 901 l 285 901 l 424 583 l 570 901 l 714 901 l 714 57 q 697 17 714 33 q 656 0 680 0 q 616 17 633 0 q 599 57 599 34 l 599 684 q 465 450 482 467 q 425 433 448 433 q 385 450 401 433 q 252 687 368 467 z "},"n":{"ha":678,"x_min":140,"x_max":714,"o":"m 714 843 l 714 0 l 561 0 l 254 700 l 254 57 q 238 17 254 33 q 197 0 221 0 q 157 17 174 0 q 140 57 140 33 l 140 901 l 292 901 l 599 203 l 599 843 q 616 884 599 867 q 657 901 633 901 q 697 884 681 901 q 714 843 714 867 z "},"o":{"ha":678,"x_min":139,"x_max":714,"o":"m 562 818 l 688 562 q 714 449 714 510 q 688 336 714 389 l 562 83 q 427 0 522 0 q 345 24 381 0 q 290 83 309 47 l 164 336 q 139 449 139 386 q 164 562 139 512 l 290 818 q 427 901 333 901 q 562 818 522 901 m 389 761 l 271 521 q 254 450 254 485 q 271 379 254 413 l 392 136 q 427 114 401 114 q 460 136 448 114 l 582 379 q 599 450 599 415 q 582 521 599 488 l 463 761 q 427 787 451 787 q 389 761 402 787 z "},"p":{"ha":678,"x_min":140,"x_max":715,"o":"m 140 57 l 140 901 l 545 901 q 665 850 614 901 q 715 729 715 800 l 715 515 q 665 395 715 445 q 545 345 615 345 l 256 345 l 256 57 q 239 17 256 33 q 199 0 222 0 q 157 17 174 0 q 140 57 140 33 m 256 458 l 545 458 q 585 475 568 458 q 602 515 602 492 l 602 729 q 585 769 602 753 q 545 786 568 786 l 256 786 l 256 458 z "},"q":{"ha":678,"x_min":139,"x_max":715,"o":"m 231 652 l 473 861 q 574 901 522 901 q 672 860 631 901 q 714 771 714 819 l 714 422 q 629 252 714 323 l 553 186 l 582 114 l 659 114 q 699 97 682 114 q 715 57 715 81 q 699 17 715 33 q 659 0 682 0 l 503 0 l 461 107 l 383 43 q 279 0 332 0 q 179 41 220 0 q 139 140 139 82 l 139 458 q 157 561 139 518 q 231 652 176 604 m 549 778 l 306 568 q 263 515 274 541 q 253 444 253 490 l 253 147 q 280 112 253 112 q 301 121 291 112 l 416 220 l 379 319 q 371 353 371 339 q 388 391 371 374 q 428 408 405 408 q 481 375 468 408 l 510 298 q 579 362 559 337 q 599 422 599 388 l 599 758 q 573 787 599 787 q 549 778 559 787 z "},"r":{"ha":678,"x_min":142,"x_max":716,"o":"m 142 57 l 142 901 l 545 901 q 665 850 614 901 q 715 729 715 800 l 715 664 q 665 542 715 593 q 545 492 615 492 l 472 492 l 705 92 q 716 56 716 74 q 699 17 716 33 q 659 0 681 0 q 607 31 625 0 l 339 492 l 257 492 l 257 57 q 240 17 257 33 q 199 0 222 0 q 158 17 175 0 q 142 57 142 33 m 256 606 l 545 606 q 585 622 568 606 q 602 663 602 639 l 602 729 q 585 769 602 753 q 545 786 568 786 l 256 786 l 256 606 z "},"s":{"ha":678,"x_min":136,"x_max":721,"o":"m 269 901 l 566 901 q 668 856 620 901 q 717 745 717 810 q 700 703 717 720 q 661 686 682 686 q 621 700 632 686 q 601 749 610 713 q 557 785 591 785 l 275 785 q 255 772 255 785 l 255 645 l 690 317 q 718 262 721 297 l 717 128 q 680 39 717 77 q 597 0 643 0 l 290 0 q 184 46 229 0 q 139 149 139 93 q 199 212 139 212 q 238 196 222 212 q 254 157 254 179 q 267 126 254 138 q 298 114 279 114 l 582 114 q 602 138 600 114 l 602 243 l 165 568 q 140 633 136 606 l 140 770 q 178 862 140 823 q 269 901 216 901 z "},"t":{"ha":678,"x_min":139,"x_max":714,"o":"m 139 746 l 139 900 l 714 900 l 714 745 q 697 704 714 721 q 657 688 680 688 q 616 705 633 688 q 599 745 599 722 l 599 786 l 484 786 l 484 57 q 467 17 484 33 q 427 0 450 0 q 385 17 402 0 q 368 57 368 33 l 368 786 l 253 786 l 253 746 q 236 706 253 722 q 196 689 220 689 q 156 706 172 689 q 139 746 139 722 z "},"u":{"ha":678,"x_min":139,"x_max":714,"o":"m 139 205 l 139 843 q 156 884 139 867 q 196 901 173 901 q 236 884 219 901 q 253 844 253 867 l 253 205 q 284 149 253 182 q 338 115 315 115 l 508 115 q 566 149 532 115 q 600 205 600 182 l 600 843 q 617 884 600 867 q 657 901 633 901 q 697 884 681 901 q 714 843 714 867 l 714 206 q 664 68 714 136 q 508 0 613 0 l 338 0 q 189 67 239 0 q 139 205 139 134 z "},"v":{"ha":678,"x_min":142,"x_max":717,"o":"m 717 843 l 717 633 l 485 43 q 429 0 467 0 q 372 43 389 0 l 142 633 l 142 843 q 158 884 142 867 q 199 901 175 901 q 239 884 222 901 q 256 843 256 867 l 256 657 l 429 215 l 603 656 l 603 843 q 620 884 603 867 q 660 901 636 901 q 700 884 684 901 q 717 843 717 867 z "},"w":{"ha":678,"x_min":138,"x_max":714,"o":"m 281 195 q 386 768 370 751 q 427 785 403 785 q 467 768 450 785 q 562 189 484 751 l 599 844 q 616 884 599 867 q 656 901 633 901 q 697 885 680 901 q 714 844 714 868 l 644 47 q 601 0 644 0 l 548 0 q 505 34 517 0 l 425 475 l 338 34 q 296 0 325 0 l 233 0 q 192 45 192 0 l 138 844 q 154 884 138 867 q 195 901 171 901 q 235 885 218 901 q 252 844 252 868 l 281 195 z "},"x":{"ha":678,"x_min":149,"x_max":727,"o":"m 437 338 l 256 28 q 208 1 240 1 q 166 18 183 1 q 149 57 149 36 q 159 90 149 73 l 371 450 l 163 808 q 151 847 151 829 q 168 885 151 869 q 207 902 184 902 q 256 875 240 902 l 439 566 l 620 873 q 668 901 637 901 q 709 885 692 901 q 727 846 727 869 q 718 815 727 830 l 505 452 l 717 86 q 725 57 725 73 q 708 16 725 33 q 668 0 692 0 q 618 28 635 0 l 437 338 z "},"y":{"ha":678,"x_min":142,"x_max":715,"o":"m 486 432 l 486 57 q 469 17 486 33 q 429 0 452 0 q 388 17 405 0 q 371 57 371 33 l 371 432 l 142 722 l 142 843 q 158 884 142 867 q 199 901 175 901 q 240 884 222 901 q 257 843 257 867 l 257 765 l 428 545 l 602 764 l 602 843 q 618 884 602 867 q 659 901 635 901 q 698 885 681 901 q 715 843 715 869 l 715 724 l 486 432 z "},"z":{"ha":678,"x_min":139,"x_max":714,"o":"m 195 901 l 714 901 l 714 828 l 296 114 l 657 114 q 697 97 681 114 q 714 57 714 81 q 697 17 714 34 q 657 0 680 0 l 139 0 l 139 75 l 557 786 l 195 786 q 155 803 172 786 q 139 844 139 821 q 155 884 139 867 q 195 901 172 901 m 141 843 q 157 883 141 867 q 198 900 174 900 q 238 883 222 900 q 254 843 254 867 l 254 746 q 238 706 254 722 q 198 689 222 689 q 157 706 174 689 q 141 746 141 722 l 141 843 m 600 155 q 616 196 600 179 q 657 212 633 212 q 697 196 681 212 q 713 155 713 179 l 713 58 q 697 18 713 35 q 657 1 681 1 q 616 18 633 1 q 600 58 600 35 l 600 155 z "},"{":{"ha":678,"x_min":142,"x_max":715,"o":"m 485 787 l 485 566 q 439 452 485 495 q 485 338 485 410 l 485 115 l 659 115 q 699 99 682 115 q 715 58 715 82 q 699 18 715 35 q 659 1 682 1 l 485 1 q 405 36 438 1 q 371 115 371 71 l 371 334 q 353 376 371 357 q 313 395 336 395 l 199 395 q 158 411 175 395 q 142 452 142 427 q 158 492 142 475 q 199 509 175 509 l 313 509 q 353 527 336 509 q 371 570 371 545 l 371 789 q 405 867 371 833 q 485 901 439 901 l 659 901 q 699 885 682 901 q 715 844 715 868 q 699 804 715 821 q 659 787 682 787 l 485 787 z "},"|":{"ha":678,"x_min":363,"x_max":478,"o":"m 478 58 q 461 17 478 35 q 419 0 444 0 q 379 17 396 0 q 363 58 363 35 l 363 846 q 380 885 363 869 q 421 901 397 901 q 461 885 444 901 q 478 846 478 869 l 478 58 z "},"}":{"ha":678,"x_min":142,"x_max":715,"o":"m 372 115 l 372 338 q 418 452 372 408 q 372 564 372 493 l 372 787 l 199 787 q 158 804 175 787 q 142 844 142 821 q 158 884 142 867 q 199 901 175 901 l 372 901 q 452 867 418 901 q 486 787 486 832 l 486 568 q 504 527 486 545 q 545 509 521 509 l 659 509 q 699 492 682 509 q 715 452 715 475 q 699 410 715 427 q 659 393 682 393 l 545 393 q 503 375 520 393 q 486 334 486 357 l 486 114 q 452 36 486 71 q 372 1 418 1 l 199 1 q 158 18 175 1 q 142 58 142 35 q 158 99 142 82 q 199 115 175 115 l 372 115 z "},"~":{"ha":678,"x_min":167,"x_max":747,"o":"m 720 412 l 616 350 q 586 340 597 340 l 550 340 q 532 345 545 340 l 358 403 l 342 403 l 256 350 q 224 340 240 340 q 184 359 201 340 q 167 400 167 377 q 195 447 167 430 l 297 510 q 328 518 310 518 l 364 518 q 382 515 374 518 l 559 456 l 570 456 l 659 510 q 690 519 674 519 q 730 501 713 519 q 747 459 747 483 q 720 412 747 429 z "},"Ä":{"ha":678,"x_min":0,"x_max":0,"o":""},"Å":{"ha":678,"x_min":0,"x_max":0,"o":""},"Ç":{"ha":678,"x_min":0,"x_max":0,"o":""},"É":{"ha":678,"x_min":0,"x_max":0,"o":""},"Ñ":{"ha":678,"x_min":0,"x_max":0,"o":""},"Ö":{"ha":678,"x_min":0,"x_max":0,"o":""},"Ü":{"ha":678,"x_min":0,"x_max":0,"o":""},"á":{"ha":678,"x_min":0,"x_max":0,"o":""},"à":{"ha":678,"x_min":0,"x_max":0,"o":""},"â":{"ha":678,"x_min":0,"x_max":0,"o":""},"ä":{"ha":678,"x_min":0,"x_max":0,"o":""},"ã":{"ha":678,"x_min":0,"x_max":0,"o":""},"å":{"ha":678,"x_min":0,"x_max":0,"o":""},"ç":{"ha":678,"x_min":0,"x_max":0,"o":""},"é":{"ha":678,"x_min":0,"x_max":0,"o":""},"è":{"ha":678,"x_min":0,"x_max":0,"o":""},"ê":{"ha":678,"x_min":0,"x_max":0,"o":""},"ë":{"ha":678,"x_min":0,"x_max":0,"o":""},"í":{"ha":678,"x_min":0,"x_max":0,"o":""},"ì":{"ha":678,"x_min":0,"x_max":0,"o":""},"î":{"ha":678,"x_min":0,"x_max":0,"o":""},"ï":{"ha":678,"x_min":0,"x_max":0,"o":""},"ñ":{"ha":678,"x_min":0,"x_max":0,"o":""},"ó":{"ha":678,"x_min":0,"x_max":0,"o":""},"ò":{"ha":678,"x_min":0,"x_max":0,"o":""},"ô":{"ha":678,"x_min":0,"x_max":0,"o":""},"ö":{"ha":678,"x_min":0,"x_max":0,"o":""},"õ":{"ha":678,"x_min":0,"x_max":0,"o":""},"ú":{"ha":678,"x_min":0,"x_max":0,"o":""},"ù":{"ha":678,"x_min":0,"x_max":0,"o":""},"û":{"ha":678,"x_min":0,"x_max":0,"o":""},"ü":{"ha":678,"x_min":0,"x_max":0,"o":""},"†":{"ha":678,"x_min":0,"x_max":0,"o":""},"°":{"ha":678,"x_min":0,"x_max":0,"o":""},"¢":{"ha":678,"x_min":0,"x_max":0,"o":""},"£":{"ha":678,"x_min":135,"x_max":714,"o":"m 653 1 l 192 1 q 152 18 169 1 q 135 58 135 35 q 151 99 135 82 q 192 115 168 115 l 264 115 l 347 396 l 193 396 q 153 413 170 396 q 136 454 136 430 q 153 494 136 477 q 193 511 170 511 l 380 511 l 457 766 q 640 903 498 903 q 714 846 714 903 q 697 805 714 823 q 657 787 681 787 l 628 787 q 568 739 583 787 l 500 510 l 653 510 q 694 493 677 510 q 711 453 711 477 q 694 413 711 430 q 654 396 677 396 l 467 396 l 385 115 l 653 115 q 694 99 677 115 q 711 58 711 82 q 694 18 711 35 q 653 1 677 1 z "},"§":{"ha":678,"x_min":0,"x_max":0,"o":""},"•":{"ha":678,"x_min":191,"x_max":652,"o":"m 652 340 q 617 258 652 293 q 538 224 583 224 l 301 224 q 223 258 256 224 q 191 338 191 292 l 191 538 q 224 620 191 585 q 304 654 258 654 l 534 654 q 617 620 583 654 q 652 538 652 585 l 652 340 z "},"¶":{"ha":678,"x_min":0,"x_max":0,"o":""},"ß":{"ha":678,"x_min":0,"x_max":0,"o":""},"®":{"ha":678,"x_min":115,"x_max":724,"o":"m 724 205 q 656 67 724 134 q 501 0 589 0 l 338 0 q 183 67 250 0 q 115 205 115 134 l 115 696 q 183 834 115 768 q 338 901 250 901 l 501 901 q 656 834 589 901 q 724 696 724 768 l 724 205 m 665 208 l 665 693 q 634 780 665 747 q 582 828 602 812 q 498 843 562 843 l 340 843 q 249 823 272 843 q 200 773 226 803 q 174 693 174 743 l 174 208 q 205 122 174 155 q 257 74 237 89 q 340 58 277 58 l 498 58 q 590 78 567 58 q 639 128 613 98 q 665 208 665 158 m 249 728 l 443 728 q 564 677 513 728 q 614 555 614 626 q 492 392 614 421 l 583 265 q 599 220 599 244 q 586 187 599 200 q 553 174 572 174 q 504 204 526 174 l 375 385 l 350 385 l 350 224 q 335 188 350 202 q 298 174 321 174 q 263 188 277 174 q 249 224 249 202 l 249 728 m 349 485 l 443 485 q 514 555 514 485 q 494 608 514 588 q 443 628 474 628 l 349 628 l 349 485 z "},"©":{"ha":678,"x_min":115,"x_max":724,"o":"m 724 205 q 656 67 724 134 q 501 0 589 0 l 338 0 q 183 67 250 0 q 115 205 115 134 l 115 696 q 183 834 115 768 q 338 901 250 901 l 501 901 q 656 834 589 901 q 724 696 724 768 l 724 205 m 665 208 l 665 693 q 634 780 665 747 q 582 828 602 812 q 498 843 562 843 l 340 843 q 249 823 272 843 q 200 773 226 803 q 174 693 174 743 l 174 208 q 205 122 174 155 q 257 74 237 89 q 340 58 277 58 l 498 58 q 590 78 567 58 q 639 128 613 98 q 665 208 665 158 m 541 627 l 427 627 q 403 602 416 627 l 336 478 q 332 452 332 471 q 339 421 332 434 l 403 300 q 427 277 416 277 l 539 277 q 581 262 565 277 q 596 226 596 247 q 581 190 596 204 q 539 175 565 175 l 435 175 q 367 196 403 175 q 314 248 330 216 l 248 374 q 231 452 231 420 q 249 534 231 501 l 314 656 q 363 706 328 685 q 431 728 397 728 l 541 728 q 582 713 566 728 q 597 677 597 699 q 582 641 597 656 q 541 627 566 627 z "},"™":{"ha":678,"x_min":62,"x_max":846,"o":"m 389 804 l 299 804 l 299 534 q 285 499 299 513 q 250 486 271 486 q 216 499 230 486 q 201 534 201 513 l 201 804 l 111 804 q 76 818 89 804 q 62 852 62 832 q 76 887 62 873 q 111 901 89 901 l 389 901 q 425 887 412 901 q 438 852 438 873 q 425 818 438 832 q 389 804 412 804 m 846 534 q 832 499 846 513 q 798 486 818 486 q 763 499 777 486 q 749 534 749 513 l 749 750 l 688 704 q 659 694 674 694 q 629 704 644 694 l 568 750 l 568 534 q 554 499 568 513 q 519 486 540 486 q 485 499 499 486 q 471 534 471 513 l 471 847 q 511 901 471 901 q 549 886 529 901 l 659 804 l 768 886 q 807 901 789 901 q 846 847 846 901 l 846 534 z "},"´":{"ha":678,"x_min":0,"x_max":0,"o":""},"¨":{"ha":678,"x_min":0,"x_max":0,"o":""},"≠":{"ha":678,"x_min":0,"x_max":0,"o":""},"Æ":{"ha":678,"x_min":0,"x_max":0,"o":""},"Ø":{"ha":678,"x_min":0,"x_max":0,"o":""},"∞":{"ha":678,"x_min":0,"x_max":0,"o":""},"±":{"ha":678,"x_min":0,"x_max":0,"o":""},"≤":{"ha":678,"x_min":0,"x_max":0,"o":""},"≥":{"ha":678,"x_min":0,"x_max":0,"o":""},"¥":{"ha":678,"x_min":0,"x_max":0,"o":""},"µ":{"ha":678,"x_min":0,"x_max":0,"o":""},"∂":{"ha":678,"x_min":0,"x_max":0,"o":""},"∑":{"ha":678,"x_min":0,"x_max":0,"o":""},"∏":{"ha":678,"x_min":0,"x_max":0,"o":""},"∫":{"ha":678,"x_min":0,"x_max":0,"o":""},"ª":{"ha":678,"x_min":0,"x_max":0,"o":""},"º":{"ha":678,"x_min":0,"x_max":0,"o":""},"Ω":{"ha":678,"x_min":0,"x_max":0,"o":""},"æ":{"ha":678,"x_min":0,"x_max":0,"o":""},"ø":{"ha":678,"x_min":0,"x_max":0,"o":""},"¿":{"ha":678,"x_min":0,"x_max":0,"o":""},"¡":{"ha":678,"x_min":0,"x_max":0,"o":""},"¬":{"ha":678,"x_min":0,"x_max":0,"o":""},"√":{"ha":678,"x_min":0,"x_max":0,"o":""},"ƒ":{"ha":678,"x_min":0,"x_max":0,"o":""},"≈":{"ha":678,"x_min":0,"x_max":0,"o":""},"∆":{"ha":678,"x_min":0,"x_max":0,"o":""},"«":{"ha":678,"x_min":0,"x_max":0,"o":""},"»":{"ha":678,"x_min":0,"x_max":0,"o":""},"…":{"ha":678,"x_min":0,"x_max":0,"o":""},"À":{"ha":678,"x_min":0,"x_max":0,"o":""},"Ã":{"ha":678,"x_min":0,"x_max":0,"o":""},"Õ":{"ha":678,"x_min":0,"x_max":0,"o":""},"Œ":{"ha":678,"x_min":0,"x_max":0,"o":""},"œ":{"ha":678,"x_min":0,"x_max":0,"o":""},"–":{"ha":678,"x_min":0,"x_max":0,"o":""},"—":{"ha":678,"x_min":0,"x_max":0,"o":""},"“":{"ha":678,"x_min":0,"x_max":0,"o":""},"”":{"ha":678,"x_min":0,"x_max":0,"o":""},"‘":{"ha":678,"x_min":0,"x_max":0,"o":""},"’":{"ha":678,"x_min":0,"x_max":0,"o":""},"÷":{"ha":678,"x_min":0,"x_max":0,"o":""},"◊":{"ha":678,"x_min":0,"x_max":0,"o":""},"ÿ":{"ha":678,"x_min":0,"x_max":0,"o":""},"Ÿ":{"ha":678,"x_min":0,"x_max":0,"o":""},"⁄":{"ha":678,"x_min":0,"x_max":0,"o":""},"€":{"ha":678,"x_min":0,"x_max":0,"o":""},"‹":{"ha":678,"x_min":0,"x_max":0,"o":""},"›":{"ha":678,"x_min":0,"x_max":0,"o":""},"":{"ha":678,"x_min":0,"x_max":0,"o":""},"":{"ha":678,"x_min":0,"x_max":0,"o":""},"‡":{"ha":678,"x_min":0,"x_max":0,"o":""},"·":{"ha":678,"x_min":0,"x_max":0,"o":""},"‚":{"ha":678,"x_min":0,"x_max":0,"o":""},"„":{"ha":678,"x_min":0,"x_max":0,"o":""},"‰":{"ha":678,"x_min":0,"x_max":0,"o":""},"Â":{"ha":678,"x_min":0,"x_max":0,"o":""},"Ê":{"ha":678,"x_min":0,"x_max":0,"o":""},"Á":{"ha":678,"x_min":0,"x_max":0,"o":""},"Ë":{"ha":678,"x_min":0,"x_max":0,"o":""},"È":{"ha":678,"x_min":0,"x_max":0,"o":""},"Í":{"ha":678,"x_min":0,"x_max":0,"o":""},"Î":{"ha":678,"x_min":0,"x_max":0,"o":""},"Ï":{"ha":678,"x_min":0,"x_max":0,"o":""},"Ì":{"ha":678,"x_min":0,"x_max":0,"o":""},"Ó":{"ha":678,"x_min":0,"x_max":0,"o":""},"Ô":{"ha":678,"x_min":0,"x_max":0,"o":""},"Ò":{"ha":678,"x_min":0,"x_max":0,"o":""},"Ú":{"ha":678,"x_min":0,"x_max":0,"o":""},"Û":{"ha":678,"x_min":0,"x_max":0,"o":""},"Ù":{"ha":678,"x_min":0,"x_max":0,"o":""},"ı":{"ha":678,"x_min":0,"x_max":0,"o":""},"ˆ":{"ha":678,"x_min":0,"x_max":0,"o":""},"˜":{"ha":678,"x_min":0,"x_max":0,"o":""},"ˉ":{"ha":678,"x_min":0,"x_max":0,"o":""},"˘":{"ha":678,"x_min":0,"x_max":0,"o":""},"˙":{"ha":678,"x_min":0,"x_max":0,"o":""},"˚":{"ha":678,"x_min":0,"x_max":0,"o":""},"¸":{"ha":678,"x_min":0,"x_max":0,"o":""},"˝":{"ha":678,"x_min":0,"x_max":0,"o":""},"˛":{"ha":678,"x_min":0,"x_max":0,"o":""},"ˇ":{"ha":678,"x_min":0,"x_max":0,"o":""},"Ł":{"ha":678,"x_min":0,"x_max":0,"o":""},"ł":{"ha":678,"x_min":0,"x_max":0,"o":""},"Š":{"ha":678,"x_min":0,"x_max":0,"o":""},"š":{"ha":678,"x_min":0,"x_max":0,"o":""},"Ž":{"ha":678,"x_min":0,"x_max":0,"o":""},"ž":{"ha":678,"x_min":0,"x_max":0,"o":""},"¦":{"ha":678,"x_min":0,"x_max":0,"o":""},"Ð":{"ha":678,"x_min":0,"x_max":0,"o":""},"ð":{"ha":678,"x_min":0,"x_max":0,"o":""},"Ý":{"ha":678,"x_min":0,"x_max":0,"o":""},"ý":{"ha":678,"x_min":0,"x_max":0,"o":""},"Þ":{"ha":678,"x_min":0,"x_max":0,"o":""},"þ":{"ha":678,"x_min":0,"x_max":0,"o":""},"−":{"ha":678,"x_min":0,"x_max":0,"o":""},"×":{"ha":678,"x_min":0,"x_max":0,"o":""},"¹":{"ha":678,"x_min":0,"x_max":0,"o":""},"²":{"ha":678,"x_min":0,"x_max":0,"o":""},"³":{"ha":678,"x_min":0,"x_max":0,"o":""},"½":{"ha":678,"x_min":0,"x_max":0,"o":""},"¼":{"ha":678,"x_min":0,"x_max":0,"o":""},"¾":{"ha":678,"x_min":0,"x_max":0,"o":""},"₣":{"ha":678,"x_min":0,"x_max":0,"o":""},"Ğ":{"ha":678,"x_min":0,"x_max":0,"o":""},"ğ":{"ha":678,"x_min":0,"x_max":0,"o":""},"İ":{"ha":678,"x_min":0,"x_max":0,"o":""},"Ş":{"ha":678,"x_min":0,"x_max":0,"o":""},"ş":{"ha":678,"x_min":0,"x_max":0,"o":""},"Ć":{"ha":678,"x_min":0,"x_max":0,"o":""},"ć":{"ha":678,"x_min":0,"x_max":0,"o":""},"Č":{"ha":678,"x_min":0,"x_max":0,"o":""},"č":{"ha":678,"x_min":0,"x_max":0,"o":""},"đ":{"ha":678,"x_min":0,"x_max":0,"o":""},"¯":{"ha":678,"x_min":0,"x_max":0,"o":""},"Ă":{"ha":678,"x_min":0,"x_max":0,"o":""},"ă":{"ha":678,"x_min":0,"x_max":0,"o":""},"Ą":{"ha":678,"x_min":0,"x_max":0,"o":""},"ą":{"ha":678,"x_min":0,"x_max":0,"o":""},"Ď":{"ha":678,"x_min":0,"x_max":0,"o":""},"ď":{"ha":678,"x_min":0,"x_max":0,"o":""},"Đ":{"ha":678,"x_min":0,"x_max":0,"o":""},"Ę":{"ha":678,"x_min":0,"x_max":0,"o":""},"ę":{"ha":678,"x_min":0,"x_max":0,"o":""},"Ě":{"ha":678,"x_min":0,"x_max":0,"o":""},"ě":{"ha":678,"x_min":0,"x_max":0,"o":""},"Ĺ":{"ha":678,"x_min":0,"x_max":0,"o":""},"ĺ":{"ha":678,"x_min":0,"x_max":0,"o":""},"Ľ":{"ha":678,"x_min":0,"x_max":0,"o":""},"ľ":{"ha":678,"x_min":0,"x_max":0,"o":""},"Ŀ":{"ha":678,"x_min":0,"x_max":0,"o":""},"ŀ":{"ha":678,"x_min":0,"x_max":0,"o":""},"Ń":{"ha":678,"x_min":0,"x_max":0,"o":""},"ń":{"ha":678,"x_min":0,"x_max":0,"o":""},"Ň":{"ha":678,"x_min":0,"x_max":0,"o":""},"ň":{"ha":678,"x_min":0,"x_max":0,"o":""},"Ő":{"ha":678,"x_min":0,"x_max":0,"o":""},"ő":{"ha":678,"x_min":0,"x_max":0,"o":""},"Ŕ":{"ha":678,"x_min":0,"x_max":0,"o":""},"ŕ":{"ha":678,"x_min":0,"x_max":0,"o":""},"Ř":{"ha":678,"x_min":0,"x_max":0,"o":""},"ř":{"ha":678,"x_min":0,"x_max":0,"o":""},"Ś":{"ha":678,"x_min":0,"x_max":0,"o":""},"ś":{"ha":678,"x_min":0,"x_max":0,"o":""},"Ţ":{"ha":678,"x_min":0,"x_max":0,"o":""},"ţ":{"ha":678,"x_min":0,"x_max":0,"o":""},"Ť":{"ha":678,"x_min":0,"x_max":0,"o":""},"ť":{"ha":678,"x_min":0,"x_max":0,"o":""},"Ů":{"ha":678,"x_min":0,"x_max":0,"o":""},"ů":{"ha":678,"x_min":0,"x_max":0,"o":""},"Ű":{"ha":678,"x_min":0,"x_max":0,"o":""},"ű":{"ha":678,"x_min":0,"x_max":0,"o":""},"Ź":{"ha":678,"x_min":0,"x_max":0,"o":""},"ź":{"ha":678,"x_min":0,"x_max":0,"o":""},"Ż":{"ha":678,"x_min":0,"x_max":0,"o":""},"ż":{"ha":678,"x_min":0,"x_max":0,"o":""},"Γ":{"ha":678,"x_min":0,"x_max":0,"o":""},"Θ":{"ha":678,"x_min":0,"x_max":0,"o":""},"Φ":{"ha":678,"x_min":0,"x_max":0,"o":""},"α":{"ha":678,"x_min":0,"x_max":0,"o":""},"δ":{"ha":678,"x_min":0,"x_max":0,"o":""},"ε":{"ha":678,"x_min":0,"x_max":0,"o":""},"σ":{"ha":678,"x_min":0,"x_max":0,"o":""},"τ":{"ha":678,"x_min":0,"x_max":0,"o":""},"φ":{"ha":678,"x_min":0,"x_max":0,"o":""},"‗":{"ha":678,"x_min":0,"x_max":0,"o":""},"‼":{"ha":678,"x_min":0,"x_max":0,"o":""},"ⁿ":{"ha":678,"x_min":0,"x_max":0,"o":""},"₧":{"ha":678,"x_min":0,"x_max":0,"o":""},"←":{"ha":678,"x_min":0,"x_max":0,"o":""},"↑":{"ha":678,"x_min":0,"x_max":0,"o":""},"→":{"ha":678,"x_min":0,"x_max":0,"o":""},"↓":{"ha":678,"x_min":0,"x_max":0,"o":""},"↔":{"ha":678,"x_min":0,"x_max":0,"o":""},"↕":{"ha":678,"x_min":0,"x_max":0,"o":""},"↨":{"ha":678,"x_min":0,"x_max":0,"o":""},"∟":{"ha":678,"x_min":0,"x_max":0,"o":""},"∩":{"ha":678,"x_min":0,"x_max":0,"o":""},"≡":{"ha":678,"x_min":0,"x_max":0,"o":""},"⌂":{"ha":678,"x_min":0,"x_max":0,"o":""},"⌐":{"ha":678,"x_min":0,"x_max":0,"o":""},"⌠":{"ha":678,"x_min":0,"x_max":0,"o":""},"⌡":{"ha":678,"x_min":0,"x_max":0,"o":""},"─":{"ha":678,"x_min":0,"x_max":0,"o":""},"│":{"ha":678,"x_min":0,"x_max":0,"o":""},"┌":{"ha":678,"x_min":0,"x_max":0,"o":""},"┐":{"ha":678,"x_min":0,"x_max":0,"o":""},"└":{"ha":678,"x_min":0,"x_max":0,"o":""},"┘":{"ha":678,"x_min":0,"x_max":0,"o":""},"├":{"ha":678,"x_min":0,"x_max":0,"o":""},"┤":{"ha":678,"x_min":0,"x_max":0,"o":""},"┬":{"ha":678,"x_min":0,"x_max":0,"o":""},"┴":{"ha":678,"x_min":0,"x_max":0,"o":""},"┼":{"ha":678,"x_min":0,"x_max":0,"o":""},"═":{"ha":678,"x_min":0,"x_max":0,"o":""},"║":{"ha":678,"x_min":0,"x_max":0,"o":""},"╒":{"ha":678,"x_min":0,"x_max":0,"o":""},"╓":{"ha":678,"x_min":0,"x_max":0,"o":""},"╔":{"ha":678,"x_min":0,"x_max":0,"o":""},"╕":{"ha":678,"x_min":0,"x_max":0,"o":""},"╖":{"ha":678,"x_min":0,"x_max":0,"o":""},"╗":{"ha":678,"x_min":0,"x_max":0,"o":""},"╘":{"ha":678,"x_min":0,"x_max":0,"o":""},"╙":{"ha":678,"x_min":0,"x_max":0,"o":""},"╚":{"ha":678,"x_min":0,"x_max":0,"o":""},"╛":{"ha":678,"x_min":0,"x_max":0,"o":""},"╜":{"ha":678,"x_min":0,"x_max":0,"o":""},"╝":{"ha":678,"x_min":0,"x_max":0,"o":""},"╞":{"ha":678,"x_min":0,"x_max":0,"o":""},"╟":{"ha":678,"x_min":0,"x_max":0,"o":""},"╠":{"ha":678,"x_min":0,"x_max":0,"o":""},"╡":{"ha":678,"x_min":0,"x_max":0,"o":""},"╢":{"ha":678,"x_min":0,"x_max":0,"o":""},"╣":{"ha":678,"x_min":0,"x_max":0,"o":""},"╤":{"ha":678,"x_min":0,"x_max":0,"o":""},"╥":{"ha":678,"x_min":0,"x_max":0,"o":""},"╦":{"ha":678,"x_min":0,"x_max":0,"o":""},"╧":{"ha":678,"x_min":0,"x_max":0,"o":""},"╨":{"ha":678,"x_min":0,"x_max":0,"o":""},"╩":{"ha":678,"x_min":0,"x_max":0,"o":""},"╪":{"ha":678,"x_min":0,"x_max":0,"o":""},"╫":{"ha":678,"x_min":0,"x_max":0,"o":""},"╬":{"ha":678,"x_min":0,"x_max":0,"o":""},"▀":{"ha":678,"x_min":0,"x_max":0,"o":""},"▄":{"ha":678,"x_min":0,"x_max":0,"o":""},"█":{"ha":678,"x_min":0,"x_max":0,"o":""},"▌":{"ha":678,"x_min":0,"x_max":0,"o":""},"▐":{"ha":678,"x_min":0,"x_max":0,"o":""},"░":{"ha":678,"x_min":0,"x_max":0,"o":""},"▒":{"ha":678,"x_min":0,"x_max":0,"o":""},"▓":{"ha":678,"x_min":0,"x_max":0,"o":""},"■":{"ha":678,"x_min":0,"x_max":0,"o":""},"▬":{"ha":678,"x_min":0,"x_max":0,"o":""},"▲":{"ha":678,"x_min":0,"x_max":0,"o":""},"►":{"ha":678,"x_min":0,"x_max":0,"o":""},"▼":{"ha":678,"x_min":0,"x_max":0,"o":""},"◄":{"ha":678,"x_min":0,"x_max":0,"o":""},"○":{"ha":678,"x_min":0,"x_max":0,"o":""},"◘":{"ha":678,"x_min":0,"x_max":0,"o":""},"◙":{"ha":678,"x_min":0,"x_max":0,"o":""},"☺":{"ha":678,"x_min":0,"x_max":0,"o":""},"☻":{"ha":678,"x_min":0,"x_max":0,"o":""},"☼":{"ha":678,"x_min":0,"x_max":0,"o":""},"♀":{"ha":678,"x_min":0,"x_max":0,"o":""},"♂":{"ha":678,"x_min":0,"x_max":0,"o":""},"♠":{"ha":678,"x_min":0,"x_max":0,"o":""},"♣":{"ha":678,"x_min":0,"x_max":0,"o":""},"♥":{"ha":678,"x_min":0,"x_max":0,"o":""},"♦":{"ha":678,"x_min":0,"x_max":0,"o":""},"♪":{"ha":678,"x_min":0,"x_max":0,"o":""},"♫":{"ha":678,"x_min":0,"x_max":0,"o":""},"Ĳ":{"ha":678,"x_min":0,"x_max":0,"o":""},"ĳ":{"ha":678,"x_min":0,"x_max":0,"o":""},"ŉ":{"ha":678,"x_min":0,"x_max":0,"o":""},"′":{"ha":678,"x_min":0,"x_max":0,"o":""},"″":{"ha":678,"x_min":0,"x_max":0,"o":""},"℅":{"ha":678,"x_min":0,"x_max":0,"o":""},"ℓ":{"ha":678,"x_min":0,"x_max":0,"o":""},"□":{"ha":678,"x_min":0,"x_max":0,"o":""},"▪":{"ha":678,"x_min":0,"x_max":0,"o":""},"▫":{"ha":678,"x_min":0,"x_max":0,"o":""},"●":{"ha":678,"x_min":0,"x_max":0,"o":""},"◦":{"ha":678,"x_min":0,"x_max":0,"o":""},"Ā":{"ha":678,"x_min":0,"x_max":0,"o":""},"ā":{"ha":678,"x_min":0,"x_max":0,"o":""},"Ĉ":{"ha":678,"x_min":0,"x_max":0,"o":""},"ĉ":{"ha":678,"x_min":0,"x_max":0,"o":""},"Ċ":{"ha":678,"x_min":0,"x_max":0,"o":""},"ċ":{"ha":678,"x_min":0,"x_max":0,"o":""},"Ē":{"ha":678,"x_min":0,"x_max":0,"o":""},"ē":{"ha":678,"x_min":0,"x_max":0,"o":""},"Ĕ":{"ha":678,"x_min":0,"x_max":0,"o":""},"ĕ":{"ha":678,"x_min":0,"x_max":0,"o":""},"Ė":{"ha":678,"x_min":0,"x_max":0,"o":""},"ė":{"ha":678,"x_min":0,"x_max":0,"o":""},"Ĝ":{"ha":678,"x_min":0,"x_max":0,"o":""},"ĝ":{"ha":678,"x_min":0,"x_max":0,"o":""},"Ġ":{"ha":678,"x_min":0,"x_max":0,"o":""},"ġ":{"ha":678,"x_min":0,"x_max":0,"o":""},"Ģ":{"ha":678,"x_min":0,"x_max":0,"o":""},"ģ":{"ha":678,"x_min":0,"x_max":0,"o":""},"Ĥ":{"ha":678,"x_min":0,"x_max":0,"o":""},"ĥ":{"ha":678,"x_min":0,"x_max":0,"o":""},"Ħ":{"ha":678,"x_min":0,"x_max":0,"o":""},"ħ":{"ha":678,"x_min":0,"x_max":0,"o":""},"Ĩ":{"ha":678,"x_min":0,"x_max":0,"o":""},"ĩ":{"ha":678,"x_min":0,"x_max":0,"o":""},"Ī":{"ha":678,"x_min":0,"x_max":0,"o":""},"ī":{"ha":678,"x_min":0,"x_max":0,"o":""},"Ĭ":{"ha":678,"x_min":0,"x_max":0,"o":""},"ĭ":{"ha":678,"x_min":0,"x_max":0,"o":""},"Į":{"ha":678,"x_min":0,"x_max":0,"o":""},"į":{"ha":678,"x_min":0,"x_max":0,"o":""},"Ĵ":{"ha":678,"x_min":0,"x_max":0,"o":""},"ĵ":{"ha":678,"x_min":0,"x_max":0,"o":""},"Ķ":{"ha":678,"x_min":0,"x_max":0,"o":""},"ķ":{"ha":678,"x_min":0,"x_max":0,"o":""},"ĸ":{"ha":678,"x_min":0,"x_max":0,"o":""},"Ļ":{"ha":678,"x_min":0,"x_max":0,"o":""},"ļ":{"ha":678,"x_min":0,"x_max":0,"o":""},"Ņ":{"ha":678,"x_min":0,"x_max":0,"o":""},"ņ":{"ha":678,"x_min":0,"x_max":0,"o":""},"Ŋ":{"ha":678,"x_min":0,"x_max":0,"o":""},"ŋ":{"ha":678,"x_min":0,"x_max":0,"o":""},"Ō":{"ha":678,"x_min":0,"x_max":0,"o":""},"ō":{"ha":678,"x_min":0,"x_max":0,"o":""},"Ŏ":{"ha":678,"x_min":0,"x_max":0,"o":""},"ŏ":{"ha":678,"x_min":0,"x_max":0,"o":""},"Ŗ":{"ha":678,"x_min":0,"x_max":0,"o":""},"ŗ":{"ha":678,"x_min":0,"x_max":0,"o":""},"Ŝ":{"ha":678,"x_min":0,"x_max":0,"o":""},"ŝ":{"ha":678,"x_min":0,"x_max":0,"o":""},"Ŧ":{"ha":678,"x_min":0,"x_max":0,"o":""},"ŧ":{"ha":678,"x_min":0,"x_max":0,"o":""},"Ũ":{"ha":678,"x_min":0,"x_max":0,"o":""},"ũ":{"ha":678,"x_min":0,"x_max":0,"o":""},"Ū":{"ha":678,"x_min":0,"x_max":0,"o":""},"ū":{"ha":678,"x_min":0,"x_max":0,"o":""},"Ŭ":{"ha":678,"x_min":0,"x_max":0,"o":""},"ŭ":{"ha":678,"x_min":0,"x_max":0,"o":""},"Ų":{"ha":678,"x_min":0,"x_max":0,"o":""},"ų":{"ha":678,"x_min":0,"x_max":0,"o":""},"Ŵ":{"ha":678,"x_min":0,"x_max":0,"o":""},"ŵ":{"ha":678,"x_min":0,"x_max":0,"o":""},"Ŷ":{"ha":678,"x_min":0,"x_max":0,"o":""},"ŷ":{"ha":678,"x_min":0,"x_max":0,"o":""},"ſ":{"ha":678,"x_min":0,"x_max":0,"o":""},"Ǻ":{"ha":678,"x_min":0,"x_max":0,"o":""},"ǻ":{"ha":678,"x_min":0,"x_max":0,"o":""},"Ǽ":{"ha":678,"x_min":0,"x_max":0,"o":""},"ǽ":{"ha":678,"x_min":0,"x_max":0,"o":""},"Ǿ":{"ha":678,"x_min":0,"x_max":0,"o":""},"ǿ":{"ha":678,"x_min":0,"x_max":0,"o":""},"·":{"ha":678,"x_min":0,"x_max":0,"o":""},"Ẁ":{"ha":678,"x_min":0,"x_max":0,"o":""},"ẁ":{"ha":678,"x_min":0,"x_max":0,"o":""},"Ẃ":{"ha":678,"x_min":0,"x_max":0,"o":""},"ẃ":{"ha":678,"x_min":0,"x_max":0,"o":""},"Ẅ":{"ha":678,"x_min":0,"x_max":0,"o":""},"ẅ":{"ha":678,"x_min":0,"x_max":0,"o":""},"Ỳ":{"ha":678,"x_min":0,"x_max":0,"o":""},"ỳ":{"ha":678,"x_min":0,"x_max":0,"o":""},"‛":{"ha":678,"x_min":0,"x_max":0,"o":""},"‾":{"ha":678,"x_min":0,"x_max":0,"o":""},"₤":{"ha":678,"x_min":0,"x_max":0,"o":""},"℮":{"ha":678,"x_min":0,"x_max":0,"o":""},"⅛":{"ha":678,"x_min":0,"x_max":0,"o":""},"⅜":{"ha":678,"x_min":0,"x_max":0,"o":""},"⅝":{"ha":678,"x_min":0,"x_max":0,"o":""},"⅞":{"ha":678,"x_min":0,"x_max":0,"o":""},"":{"ha":678,"x_min":0,"x_max":0,"o":""},"":{"ha":678,"x_min":0,"x_max":0,"o":""},"΄":{"ha":678,"x_min":0,"x_max":0,"o":""},"΅":{"ha":678,"x_min":0,"x_max":0,"o":""},"Ά":{"ha":678,"x_min":0,"x_max":0,"o":""},"Έ":{"ha":678,"x_min":0,"x_max":0,"o":""},"Ή":{"ha":678,"x_min":0,"x_max":0,"o":""},"Ί":{"ha":678,"x_min":0,"x_max":0,"o":""},"Ό":{"ha":678,"x_min":0,"x_max":0,"o":""},"Ύ":{"ha":678,"x_min":0,"x_max":0,"o":""},"Ώ":{"ha":678,"x_min":0,"x_max":0,"o":""},"ΐ":{"ha":678,"x_min":0,"x_max":0,"o":""},"Α":{"ha":678,"x_min":0,"x_max":0,"o":""},"Β":{"ha":678,"x_min":0,"x_max":0,"o":""},"Δ":{"ha":678,"x_min":0,"x_max":0,"o":""},"Ε":{"ha":678,"x_min":0,"x_max":0,"o":""},"Ζ":{"ha":678,"x_min":0,"x_max":0,"o":""},"Η":{"ha":678,"x_min":0,"x_max":0,"o":""},"Ι":{"ha":678,"x_min":0,"x_max":0,"o":""},"Κ":{"ha":678,"x_min":0,"x_max":0,"o":""},"Λ":{"ha":678,"x_min":0,"x_max":0,"o":""},"Μ":{"ha":678,"x_min":0,"x_max":0,"o":""},"Ν":{"ha":678,"x_min":0,"x_max":0,"o":""},"Ξ":{"ha":678,"x_min":0,"x_max":0,"o":""},"Ο":{"ha":678,"x_min":0,"x_max":0,"o":""},"Π":{"ha":678,"x_min":0,"x_max":0,"o":""},"Ρ":{"ha":678,"x_min":0,"x_max":0,"o":""},"Σ":{"ha":678,"x_min":0,"x_max":0,"o":""},"Τ":{"ha":678,"x_min":0,"x_max":0,"o":""},"Υ":{"ha":678,"x_min":0,"x_max":0,"o":""},"Χ":{"ha":678,"x_min":0,"x_max":0,"o":""},"Ψ":{"ha":678,"x_min":0,"x_max":0,"o":""},"Ω":{"ha":678,"x_min":0,"x_max":0,"o":""},"Ϊ":{"ha":678,"x_min":0,"x_max":0,"o":""},"Ϋ":{"ha":678,"x_min":0,"x_max":0,"o":""},"ά":{"ha":678,"x_min":0,"x_max":0,"o":""},"έ":{"ha":678,"x_min":0,"x_max":0,"o":""},"ή":{"ha":678,"x_min":0,"x_max":0,"o":""},"ί":{"ha":678,"x_min":0,"x_max":0,"o":""},"ΰ":{"ha":678,"x_min":0,"x_max":0,"o":""},"β":{"ha":678,"x_min":0,"x_max":0,"o":""},"γ":{"ha":678,"x_min":0,"x_max":0,"o":""},"ζ":{"ha":678,"x_min":0,"x_max":0,"o":""},"η":{"ha":678,"x_min":0,"x_max":0,"o":""},"θ":{"ha":678,"x_min":0,"x_max":0,"o":""},"ι":{"ha":678,"x_min":0,"x_max":0,"o":""},"κ":{"ha":678,"x_min":0,"x_max":0,"o":""},"λ":{"ha":678,"x_min":0,"x_max":0,"o":""},"μ":{"ha":678,"x_min":0,"x_max":0,"o":""},"ν":{"ha":678,"x_min":0,"x_max":0,"o":""},"ξ":{"ha":678,"x_min":0,"x_max":0,"o":""},"ο":{"ha":678,"x_min":0,"x_max":0,"o":""},"ρ":{"ha":678,"x_min":0,"x_max":0,"o":""},"ς":{"ha":678,"x_min":0,"x_max":0,"o":""},"υ":{"ha":678,"x_min":0,"x_max":0,"o":""},"χ":{"ha":678,"x_min":0,"x_max":0,"o":""},"ψ":{"ha":678,"x_min":0,"x_max":0,"o":""},"ω":{"ha":678,"x_min":0,"x_max":0,"o":""},"ϊ":{"ha":678,"x_min":0,"x_max":0,"o":""},"ϋ":{"ha":678,"x_min":0,"x_max":0,"o":""},"ό":{"ha":678,"x_min":0,"x_max":0,"o":""},"ύ":{"ha":678,"x_min":0,"x_max":0,"o":""},"ώ":{"ha":678,"x_min":0,"x_max":0,"o":""},"Ё":{"ha":678,"x_min":0,"x_max":0,"o":""},"Ђ":{"ha":678,"x_min":0,"x_max":0,"o":""},"Ѓ":{"ha":678,"x_min":0,"x_max":0,"o":""},"Є":{"ha":678,"x_min":0,"x_max":0,"o":""},"Ѕ":{"ha":678,"x_min":0,"x_max":0,"o":""},"І":{"ha":678,"x_min":0,"x_max":0,"o":""},"Ї":{"ha":678,"x_min":0,"x_max":0,"o":""},"Ј":{"ha":678,"x_min":0,"x_max":0,"o":""},"Љ":{"ha":678,"x_min":0,"x_max":0,"o":""},"Њ":{"ha":678,"x_min":0,"x_max":0,"o":""},"Ћ":{"ha":678,"x_min":0,"x_max":0,"o":""},"Ќ":{"ha":678,"x_min":0,"x_max":0,"o":""},"Ў":{"ha":678,"x_min":0,"x_max":0,"o":""},"Џ":{"ha":678,"x_min":0,"x_max":0,"o":""},"А":{"ha":678,"x_min":0,"x_max":0,"o":""},"Б":{"ha":678,"x_min":0,"x_max":0,"o":""},"В":{"ha":678,"x_min":0,"x_max":0,"o":""},"Г":{"ha":678,"x_min":0,"x_max":0,"o":""},"Д":{"ha":678,"x_min":0,"x_max":0,"o":""},"Е":{"ha":678,"x_min":0,"x_max":0,"o":""},"Ж":{"ha":678,"x_min":0,"x_max":0,"o":""},"З":{"ha":678,"x_min":0,"x_max":0,"o":""},"И":{"ha":678,"x_min":0,"x_max":0,"o":""},"Й":{"ha":678,"x_min":0,"x_max":0,"o":""},"К":{"ha":678,"x_min":0,"x_max":0,"o":""},"Л":{"ha":678,"x_min":0,"x_max":0,"o":""},"М":{"ha":678,"x_min":0,"x_max":0,"o":""},"Н":{"ha":678,"x_min":0,"x_max":0,"o":""},"О":{"ha":678,"x_min":0,"x_max":0,"o":""},"П":{"ha":678,"x_min":0,"x_max":0,"o":""},"Р":{"ha":678,"x_min":0,"x_max":0,"o":""},"С":{"ha":678,"x_min":0,"x_max":0,"o":""},"Т":{"ha":678,"x_min":0,"x_max":0,"o":""},"У":{"ha":678,"x_min":0,"x_max":0,"o":""},"Ф":{"ha":678,"x_min":0,"x_max":0,"o":""},"Х":{"ha":678,"x_min":0,"x_max":0,"o":""},"Ц":{"ha":678,"x_min":0,"x_max":0,"o":""},"Ч":{"ha":678,"x_min":0,"x_max":0,"o":""},"Ш":{"ha":678,"x_min":0,"x_max":0,"o":""},"Щ":{"ha":678,"x_min":0,"x_max":0,"o":""},"Ъ":{"ha":678,"x_min":0,"x_max":0,"o":""},"Ы":{"ha":678,"x_min":0,"x_max":0,"o":""},"Ь":{"ha":678,"x_min":0,"x_max":0,"o":""},"Э":{"ha":678,"x_min":0,"x_max":0,"o":""},"Ю":{"ha":678,"x_min":0,"x_max":0,"o":""},"Я":{"ha":678,"x_min":0,"x_max":0,"o":""},"а":{"ha":678,"x_min":0,"x_max":0,"o":""},"б":{"ha":678,"x_min":0,"x_max":0,"o":""},"в":{"ha":678,"x_min":0,"x_max":0,"o":""},"г":{"ha":678,"x_min":0,"x_max":0,"o":""},"д":{"ha":678,"x_min":0,"x_max":0,"o":""},"е":{"ha":678,"x_min":0,"x_max":0,"o":""},"ж":{"ha":678,"x_min":0,"x_max":0,"o":""},"з":{"ha":678,"x_min":0,"x_max":0,"o":""},"и":{"ha":678,"x_min":0,"x_max":0,"o":""},"й":{"ha":678,"x_min":0,"x_max":0,"o":""},"к":{"ha":678,"x_min":0,"x_max":0,"o":""},"л":{"ha":678,"x_min":0,"x_max":0,"o":""},"м":{"ha":678,"x_min":0,"x_max":0,"o":""},"н":{"ha":678,"x_min":0,"x_max":0,"o":""},"о":{"ha":678,"x_min":0,"x_max":0,"o":""},"п":{"ha":678,"x_min":0,"x_max":0,"o":""},"р":{"ha":678,"x_min":0,"x_max":0,"o":""},"с":{"ha":678,"x_min":0,"x_max":0,"o":""},"т":{"ha":678,"x_min":0,"x_max":0,"o":""},"у":{"ha":678,"x_min":0,"x_max":0,"o":""},"ф":{"ha":678,"x_min":0,"x_max":0,"o":""},"х":{"ha":678,"x_min":0,"x_max":0,"o":""},"ц":{"ha":678,"x_min":0,"x_max":0,"o":""},"ч":{"ha":678,"x_min":0,"x_max":0,"o":""},"ш":{"ha":678,"x_min":0,"x_max":0,"o":""},"щ":{"ha":678,"x_min":0,"x_max":0,"o":""},"ъ":{"ha":678,"x_min":0,"x_max":0,"o":""},"ы":{"ha":678,"x_min":0,"x_max":0,"o":""},"ь":{"ha":678,"x_min":0,"x_max":0,"o":""},"э":{"ha":678,"x_min":0,"x_max":0,"o":""},"ю":{"ha":678,"x_min":0,"x_max":0,"o":""},"я":{"ha":678,"x_min":0,"x_max":0,"o":""},"ё":{"ha":678,"x_min":0,"x_max":0,"o":""},"ђ":{"ha":678,"x_min":0,"x_max":0,"o":""},"ѓ":{"ha":678,"x_min":0,"x_max":0,"o":""},"є":{"ha":678,"x_min":0,"x_max":0,"o":""},"ѕ":{"ha":678,"x_min":0,"x_max":0,"o":""},"і":{"ha":678,"x_min":0,"x_max":0,"o":""},"ї":{"ha":678,"x_min":0,"x_max":0,"o":""},"ј":{"ha":678,"x_min":0,"x_max":0,"o":""},"љ":{"ha":678,"x_min":0,"x_max":0,"o":""},"њ":{"ha":678,"x_min":0,"x_max":0,"o":""},"ћ":{"ha":678,"x_min":0,"x_max":0,"o":""},"ќ":{"ha":678,"x_min":0,"x_max":0,"o":""},"ў":{"ha":678,"x_min":0,"x_max":0,"o":""},"џ":{"ha":678,"x_min":0,"x_max":0,"o":""},"Ґ":{"ha":678,"x_min":0,"x_max":0,"o":""},"ґ":{"ha":678,"x_min":0,"x_max":0,"o":""},"―":{"ha":678,"x_min":0,"x_max":0,"o":""},"№":{"ha":678,"x_min":0,"x_max":0,"o":""},"π":{"ha":678,"x_min":0,"x_max":0,"o":""}}}
